<svg xmlns="http://www.w3.org/2000/svg" width="30" height="30" viewBox="0 0 30 30" fill="none">
  <g clip-path="url(#clip0_301_11000)">
    <path fill-rule="evenodd" clip-rule="evenodd" d="M5.08402 17.8546C4.79198 18.2366 4.36303 18.5111 3.79889 18.6808L4.03315 19.5551L6.0037 19.0271L7.76175 25.5883L8.96752 25.2652L6.56124 16.2848L5.48133 16.5742C5.51294 17.0355 5.37126 17.4921 5.08402 17.8546ZM15.1577 18.2106C14.8238 18.0185 14.4526 17.9003 14.0691 17.8639C13.4633 17.8069 12.8532 17.9096 12.2995 18.1619C11.9627 18.3144 11.6595 18.5321 11.4074 18.8026C11.282 18.934 11.1819 19.0792 11.1063 19.2354L10.9475 16.3329L14.8021 15.3L14.4963 14.1586L9.80001 15.417L10.0653 20.2733L11.2947 20.3918C11.4322 20.0674 11.6429 19.7793 11.9103 19.5499C12.1778 19.3205 12.4946 19.1561 12.8362 19.0695C13.1215 18.993 13.3947 18.9672 13.6557 18.992C13.9186 19.0163 14.1599 19.0907 14.3815 19.2105C14.6029 19.3334 14.7951 19.5012 14.9594 19.7147C15.1246 19.9278 15.2499 20.1918 15.3336 20.5041C15.4083 20.7827 15.4292 21.0531 15.3965 21.3152C15.364 21.5782 15.2843 21.8189 15.1596 22.0377C15.033 22.257 14.8629 22.4446 14.6448 22.603C14.4132 22.7666 14.1535 22.8865 13.8787 22.9565C13.5866 23.0348 13.3095 23.0576 13.0491 23.0233C12.7971 22.9919 12.553 22.9146 12.3289 22.7951C12.107 22.676 11.9105 22.5145 11.7506 22.3199C11.5843 22.1199 11.4529 21.8933 11.3619 21.6497L10.3202 22.2274C10.5775 22.9316 11.0964 23.5096 11.7689 23.8411C12.1052 24.0084 12.4795 24.1141 12.8899 24.1586C13.3013 24.2028 13.728 24.1657 14.1719 24.0468C14.6657 23.9144 15.088 23.7148 15.4382 23.45C15.7891 23.184 16.065 22.8763 16.2683 22.5284C16.4705 22.1797 16.5958 21.8022 16.6445 21.3958C16.6922 20.9896 16.6614 20.5788 16.5504 20.1647C16.4284 19.7093 16.2469 19.3161 16.0061 18.9863C15.7798 18.6716 15.4912 18.4081 15.1577 18.2106ZM16.1816 7.40494L9.42161 9.21628L8.83414 7.02379L4.95291 10.9357L10.2704 12.3839L9.6824 10.1895L16.4424 8.3782C20.1702 7.37934 23.9927 9.51644 24.9646 13.1434C25.9362 16.7693 23.6945 20.5323 19.9667 21.5312L20.228 22.5064C24.4881 21.3649 27.0459 17.0486 25.9302 12.8846C24.8149 8.72256 20.4417 6.26346 16.1826 7.40468L16.1816 7.40494Z" fill="#4D4D4D"/>
  </g>
  <defs>
    <clipPath id="clip0_301_11000">
      <rect width="23.872" height="23.872" fill="white" transform="translate(0.449463 6.18127) rotate(-15)"/>
    </clipPath>
  </defs>
</svg>