<svg xmlns="http://www.w3.org/2000/svg" width="64" height="64" viewBox="0 0 64 64" fill="none">
  <path d="M9.21106 22.1112C12.2 18.6001 15.4777 15.2446 19.1 12.389C21.6222 10.4001 22.4888 10.3001 23.8777 9.92235C24.2555 9.82235 24.5888 9.58901 24.9111 9.35568C38.4333 -0.188765 55.6666 6.5779 59 23.4223C61.2111 34.6001 55.5111 45.7001 45.7111 50.2335C45.5555 50.3112 45.3222 50.3335 45.2444 50.4557C43.3 53.5001 39.3444 54.6779 36.9333 55.2779C36.4444 55.4557 36.0666 55.9668 35.6222 56.3001C35.2777 56.5557 34.9333 56.8335 34.5444 57.0112C21.8 62.9224 8.09995 55.0112 5.09995 41.9223C4.67773 40.0779 2.82217 28.9446 9.21106 22.1112ZM35.7555 49.5224C40.3 49.5001 43.2666 48.7557 45.9222 47.3001C58.7 40.289 60.6111 21.2446 49.3666 11.9446C42.9222 6.62235 34.6777 5.72235 27.4333 10.8223C18.8222 16.8779 15.7 29.289 20.5222 38.6668C23.9888 45.4112 29.4888 49.1335 35.7555 49.5224ZM40.1 52.4001C40.6555 52.2001 40.7333 52.0557 40.6444 51.989C40.6444 51.989 40.4111 51.989 40.0222 52.0001C30.0222 52.7557 22.5 48.7779 18.0444 39.8112C13.6888 31.0557 14.7444 22.4557 19.8888 14.2223C19.4777 14.4223 19.1444 14.6668 18.8444 14.9446C11.9111 21.2223 9.86662 31.8557 13.8666 40.9446C17.5555 49.3335 25.3 54.3112 34.0111 53.689C36.0555 53.5446 38.0666 52.8446 40.1 52.4001ZM10.7333 23.5779C10.7444 23.2557 10.4444 23.6557 10.4 23.7112C10.2444 23.9223 10.0888 24.1446 9.95551 24.3668C8.12218 27.4557 6.97773 30.8001 6.82218 34.389C6.45551 42.5668 9.32217 49.3446 16.2444 53.9668C20.8444 57.0446 25.9555 57.6779 31.3 56.0112C23.4888 55.2223 17.4 51.6001 13.2888 44.9112C9.17773 38.2446 8.52218 31.089 10.7333 23.5779Z" fill="black"/>
  <path d="M44.2 30.7C45.7333 30.7556 46.2333 31.5556 45.7333 33C44.4889 36.5556 40.9889 38.2889 37.4222 37.0445C35.3111 36.3 33.6555 34.9445 32.5111 33.0112C31.6333 31.5223 32.0222 30.6667 33.7444 30.5556C35.5444 30.4334 42.5222 30.6334 44.2 30.7ZM43.8555 32.4334C40.7889 32.4334 37.8 32.4334 34.7778 32.4334C37.8444 36 42.3778 36.0667 43.8555 32.4334Z" fill="black"/>
  <path d="M31.6997 24.4005C31.7109 26.1338 30.0442 27.7116 28.222 27.7005C26.6331 27.6894 25.522 26.256 25.5109 24.7338C25.4886 23.2116 27.0442 21.7116 28.7553 21.6671C30.3997 21.6116 31.6997 22.8116 31.6997 24.4005ZM28.3664 23.3005C27.5442 23.4338 27.2886 24.2116 27.3553 24.8005C27.4442 25.656 28.0886 25.8671 28.4886 25.8782C28.8664 25.8894 29.6109 25.5116 29.7664 24.7782C29.9664 24.0338 29.5442 23.0227 28.3664 23.3005Z" fill="#CD4631"/>
  <path d="M52.9331 24.8669C52.9109 26.5447 51.722 27.778 50.1331 27.7669C48.422 27.7558 47.1887 26.3669 47.2442 24.5114C47.2887 22.9002 48.4887 21.6558 49.9776 21.6891C51.522 21.7336 52.9553 23.2669 52.9331 24.8669ZM51.3998 24.8225C51.3998 23.9669 50.9442 23.3891 50.2331 23.3891C49.7998 23.3891 49.0665 23.7225 49.0665 24.6336C49.0665 26.2225 50.2331 26.1336 50.2331 26.1336C50.8553 26.1114 51.3998 25.8558 51.3998 24.8225Z" fill="#81ADC8"/>
</svg>