<svg xmlns="http://www.w3.org/2000/svg" width="64" height="64" viewBox="0 0 64 64" fill="none">
<path d="M44.0443 18.722C43.7666 21.4665 43.5666 23.7554 43.2888 26.0331C43.1332 27.2776 42.6221 28.3554 41.2221 28.6554C40.0555 28.8998 38.8444 28.2554 38.1444 26.822C37.4666 25.4443 36.9777 23.9665 36.4666 22.5109C34.9888 18.3331 32.711 14.622 29.8888 11.2331C29.011 10.1776 28.1444 9.12204 27.1332 7.89981C26.911 8.64426 26.7332 9.24426 26.5555 9.84426C24.6666 16.3665 24.0221 23.0109 24.311 29.7776C24.3999 31.9665 24.1444 34.1998 23.8332 36.3776C23.6332 37.7776 23.111 39.1998 21.4221 39.5109C20.211 39.7331 19.011 38.7331 18.2777 36.9109C17.7888 35.6887 17.4666 34.3887 17.0221 33.1443C16.7777 32.4443 16.4221 31.7887 16.0999 31.0554C12.0221 36.0109 15.1332 52.3554 20.5666 54.7443C20.5888 50.3665 22.5999 46.7443 24.9777 43.322C28.3444 38.4776 30.1777 33.122 30.7888 27.2998C30.8332 26.8665 30.9221 26.422 30.9999 25.9998C31.3777 24.022 32.1888 23.6998 33.6666 25.1665C34.6221 26.1109 35.4666 27.2776 36.0221 28.4887C38.7777 34.422 39.9221 40.5776 38.0555 47.0443C37.8444 47.7554 37.3666 48.7554 37.7221 49.2665C38.3444 50.0443 39.3221 48.7109 39.5332 48.1665C40.0888 46.7331 40.4332 45.2331 40.8777 43.7554C41.1555 42.8331 41.3221 41.822 41.8221 41.022C42.211 40.3998 43.0555 39.6331 43.6332 39.6887C44.2332 39.7443 45.0666 40.5998 45.2666 41.2665C46.7332 46.2331 46.0443 50.7776 41.4666 54.6331C39.111 56.622 36.211 57.2665 33.2444 57.6554C29.8999 58.0887 26.5999 58.222 23.2444 57.4554C21.6444 57.0887 19.9777 56.8443 19.011 56.4887C18.0444 56.1331 17.2221 55.4109 16.8332 54.8109C11.8888 47.1776 11.0777 39.1331 14.5555 30.6998C15.2777 28.9554 16.6666 28.5887 17.8888 30.0331C18.7888 31.0998 19.2999 32.5331 19.8666 33.8665C20.2555 34.7998 20.4666 35.8109 20.7332 36.7887C21.0666 38.0109 21.5555 38.1998 21.8888 37.9887C22.2999 37.8665 22.5444 36.3887 22.4999 34.9109C22.4221 32.4776 22.4666 30.0331 22.211 27.622C21.4666 20.5554 23.1888 13.9331 25.6999 7.44426C26.3221 5.82203 27.0332 5.62203 28.3666 6.75537C33.8332 11.3887 37.7777 17.0331 39.5666 24.0554C39.8444 25.122 39.9332 26.322 41.2888 27.1665C41.4221 26.1331 41.5332 25.2776 41.6555 24.4331C41.9666 22.3443 42.1666 20.2331 42.6332 18.1887C42.9221 16.9554 43.7777 16.6998 44.6777 17.5887C45.8555 18.7554 47.011 20.0443 47.7777 21.4998C50.6332 26.9443 51.611 32.8554 51.5888 38.9443C51.5666 43.7331 50.6777 48.3776 48.4777 52.6554C47.7332 54.1109 46.4777 55.3109 45.411 56.5887C44.9332 57.1665 43.8443 56.9776 44.3443 55.6887C44.3888 55.5776 44.4444 55.4443 44.5221 55.3331C48.6555 49.7887 49.0666 43.2998 49.1221 36.7665C49.1666 31.5554 48.411 26.4443 45.9777 21.7331C45.4666 20.7665 44.811 19.8998 44.0443 18.722ZM43.4443 41.5109C42.7888 43.6887 42.2777 45.4887 41.6888 47.2776C41.2221 48.6887 40.511 49.9665 39.111 50.6665C37.4888 51.4887 35.911 50.5776 35.8221 48.7554C35.7888 48.0109 35.8221 47.2443 35.9666 46.522C37.0999 40.722 36.5666 35.0998 34.2999 29.6443C33.911 28.7109 33.3444 27.8554 32.7777 26.8331C32.5777 27.1665 32.4332 28.3776 32.411 28.8998C32.2666 32.8554 31.8221 36.7665 29.7444 40.2554C28.4999 42.3331 27.0999 44.322 25.7444 46.3442C24.2444 48.5998 22.911 50.9331 22.4221 53.6443C22.0888 55.4998 22.2332 55.5887 24.011 56.0443C27.7777 56.9998 31.4666 56.3887 35.1444 55.6554C39.3332 54.822 41.9444 52.0665 43.4999 48.2665C44.3555 46.1887 44.111 44.0331 43.4443 41.5109Z" fill="#CD4631"/>
</svg>