<svg xmlns="http://www.w3.org/2000/svg" width="198" height="36" viewBox="0 0 198 36" fill="none">
  <path d="M16.0867 11.455V16.9103V19.0907V24.5459H20.683V19.0907V16.9103V11.455H16.0867Z" fill="#FAB908"/>
  <path d="M2.29814 19.0226C3.56737 19.0226 4.59628 18.0152 4.59628 16.7726C4.59628 15.5299 3.56737 14.5226 2.29814 14.5226C1.02891 14.5226 0 15.5299 0 16.7726C0 18.0152 1.02891 19.0226 2.29814 19.0226Z" fill="#0066D9"/>
  <path d="M2.29814 21.4774C3.56737 21.4774 4.59628 20.4701 4.59628 19.2274C4.59628 17.9848 3.56737 16.9774 2.29814 16.9774C1.02891 16.9774 0 17.9848 0 19.2274C0 20.4701 1.02891 21.4774 2.29814 21.4774Z" fill="#0066D9"/>
  <path d="M4.59628 16.7729H0V19.2275H4.59628V16.7729Z" fill="#0066D9"/>
  <path d="M34.4718 21.4774C35.7411 21.4774 36.7699 20.4701 36.7699 19.2274C36.7699 17.9848 35.7411 16.9774 34.4718 16.9774C33.2026 16.9774 32.1737 17.9848 32.1737 19.2274C32.1737 20.4701 33.2026 21.4774 34.4718 21.4774Z" fill="#4285F4"/>
  <path d="M34.4718 19.0226C35.7411 19.0226 36.7699 18.0152 36.7699 16.7726C36.7699 15.5299 35.7411 14.5226 34.4718 14.5226C33.2026 14.5226 32.1737 15.5299 32.1737 16.7726C32.1737 18.0152 33.2026 19.0226 34.4718 19.0226Z" fill="#4285F4"/>
  <path d="M32.1737 19.2278H36.7699V16.7732H32.1737V19.2278Z" fill="#4285F4"/>
  <path d="M10.2369 26.3867C11.506 26.3867 12.535 25.3794 12.535 24.1367C12.535 22.8941 11.506 21.8867 10.2369 21.8867C8.96762 21.8867 7.93872 22.8941 7.93872 24.1367C7.93872 25.3794 8.96762 26.3867 10.2369 26.3867Z" fill="#EA4335"/>
  <path d="M10.2369 28.8414C11.506 28.8414 12.535 27.8341 12.535 26.5914C12.535 25.3488 11.506 24.3413 10.2369 24.3413C8.96762 24.3413 7.93872 25.3488 7.93872 26.5914C7.93872 27.8341 8.96762 28.8414 10.2369 28.8414Z" fill="#EA4335"/>
  <path d="M12.535 24.137H7.93872V26.5915H12.535V24.137Z" fill="#EA4335"/>
  <path d="M10.2369 11.6592C11.506 11.6592 12.535 10.6518 12.535 9.40919C12.535 8.16655 11.506 7.15918 10.2369 7.15918C8.96762 7.15918 7.93872 8.16655 7.93872 9.40919C7.93872 10.6518 8.96762 11.6592 10.2369 11.6592Z" fill="#EA4335"/>
  <path d="M10.2369 19.6363C11.506 19.6363 12.535 18.6289 12.535 17.3862C12.535 16.1436 11.506 15.1362 10.2369 15.1362C8.96762 15.1362 7.93872 16.1436 7.93872 17.3862C7.93872 18.6289 8.96762 19.6363 10.2369 19.6363Z" fill="#EA4335"/>
  <path d="M12.535 9.40894H7.93872V17.4374H12.535V9.40894Z" fill="#EA4335"/>
  <path d="M26.533 14.1139C27.8022 14.1139 28.8311 13.1066 28.8311 11.8639C28.8311 10.6213 27.8022 9.61389 26.533 9.61389C25.2638 9.61389 24.2349 10.6213 24.2349 11.8639C24.2349 13.1066 25.2638 14.1139 26.533 14.1139Z" fill="#34A853"/>
  <path d="M26.533 11.6592C27.8022 11.6592 28.8311 10.6518 28.8311 9.40919C28.8311 8.16655 27.8022 7.15918 26.533 7.15918C25.2638 7.15918 24.2349 8.16655 24.2349 9.40919C24.2349 10.6518 25.2638 11.6592 26.533 11.6592Z" fill="#34A853"/>
  <path d="M24.2346 11.8636H28.831V9.40906H24.2346V11.8636Z" fill="#34A853"/>
  <path d="M18.3848 6.95473C19.6541 6.95473 20.683 5.94737 20.683 4.70472C20.683 3.46208 19.6541 2.45471 18.3848 2.45471C17.1156 2.45471 16.0867 3.46208 16.0867 4.70472C16.0867 5.94737 17.1156 6.95473 18.3848 6.95473Z" fill="#FAB908"/>
  <path d="M18.3848 4.50002C19.6541 4.50002 20.683 3.49265 20.683 2.25001C20.683 1.00737 19.6541 0 18.3848 0C17.1156 0 16.0867 1.00737 16.0867 2.25001C16.0867 3.49265 17.1156 4.50002 18.3848 4.50002Z" fill="#FAB908"/>
  <path d="M16.0869 4.70457H20.6833V2.25H16.0869V4.70457Z" fill="#FAB908"/>
  <path d="M18.3848 36C19.6541 36 20.683 34.9927 20.683 33.75C20.683 32.5074 19.6541 31.5 18.3848 31.5C17.1156 31.5 16.0867 32.5074 16.0867 33.75C16.0867 34.9927 17.1156 36 18.3848 36Z" fill="#FAB908"/>
  <path d="M18.3848 33.5458C19.6541 33.5458 20.683 32.5384 20.683 31.2958C20.683 30.0531 19.6541 29.0458 18.3848 29.0458C17.1156 29.0458 16.0867 30.0531 16.0867 31.2958C16.0867 32.5384 17.1156 33.5458 18.3848 33.5458Z" fill="#FAB908"/>
  <path d="M16.0869 33.7502H20.6833V31.2957H16.0869V33.7502Z" fill="#FAB908"/>
  <path d="M26.533 28.8414C27.8022 28.8414 28.8311 27.8341 28.8311 26.5914C28.8311 25.3488 27.8022 24.3413 26.533 24.3413C25.2638 24.3413 24.2349 25.3488 24.2349 26.5914C24.2349 27.8341 25.2638 28.8414 26.533 28.8414Z" fill="#34A853"/>
  <path d="M26.533 20.8638C27.8022 20.8638 28.8311 19.8564 28.8311 18.6138C28.8311 17.3711 27.8022 16.3638 26.533 16.3638C25.2638 16.3638 24.2349 17.3711 24.2349 18.6138C24.2349 19.8564 25.2638 20.8638 26.533 20.8638Z" fill="#34A853"/>
  <path d="M24.2346 26.5912H28.831V18.6138H24.2346V26.5912Z" fill="#34A853"/>
  <path d="M18.3848 13.7047C19.6541 13.7047 20.683 12.6972 20.683 11.4547C20.683 10.212 19.6541 9.20459 18.3848 9.20459C17.1156 9.20459 16.0867 10.212 16.0867 11.4547C16.0867 12.6972 17.1156 13.7047 18.3848 13.7047Z" fill="#FAB908"/>
  <path d="M18.3848 26.7958C19.6541 26.7958 20.683 25.7884 20.683 24.5458C20.683 23.3031 19.6541 22.2958 18.3848 22.2958C17.1156 22.2958 16.0867 23.3031 16.0867 24.5458C16.0867 25.7884 17.1156 26.7958 18.3848 26.7958Z" fill="#FAB908"/>
  <path fill-rule="evenodd" clip-rule="evenodd" d="M121.397 23.6467H119.483V9.06628H124.559C125.82 9.06628 126.912 9.47695 127.834 10.2982C128.756 11.1196 129.217 12.1547 129.217 13.4037C129.217 14.6527 128.756 15.6879 127.834 16.5092C126.912 17.3306 125.82 17.7413 124.559 17.7413H121.397V23.6467ZM121.397 15.9493H124.6C125.404 15.9493 126.049 15.6845 126.534 15.1551C127.019 14.6256 127.262 14.0418 127.262 13.4037C127.262 12.7657 127.019 12.1819 126.534 11.6525C126.049 11.123 125.404 10.8583 124.6 10.8583H121.397V15.9493ZM130.804 14.87C131.788 13.8517 133.043 13.3426 134.569 13.3426C136.094 13.3426 137.349 13.8483 138.333 14.8598C139.317 15.8712 139.81 17.1371 139.81 18.6576C139.81 20.1781 139.317 21.444 138.333 22.4555C137.349 23.4669 136.094 23.9725 134.569 23.9725C133.043 23.9725 131.788 23.4669 130.804 22.4555C129.82 21.444 129.327 20.1781 129.327 18.6576C129.327 17.1371 129.82 15.8746 130.804 14.87ZM132.218 21.2845C132.884 21.9362 133.668 22.262 134.569 22.262C135.47 22.262 136.25 21.9328 136.909 21.2743C137.567 20.6159 137.896 19.7437 137.896 18.6576C137.896 17.5715 137.567 16.6993 136.909 16.0408C136.25 15.3824 135.47 15.0532 134.569 15.0532C133.668 15.0532 132.887 15.3824 132.228 16.0408C131.57 16.6993 131.241 17.5715 131.241 18.6576C131.241 19.7437 131.566 20.6193 132.218 21.2845ZM145.577 23.9725C144.26 23.9725 143.123 23.4634 142.166 22.4452C141.21 21.4271 140.731 20.1645 140.731 18.6576C140.731 17.1507 141.21 15.8882 142.166 14.87C143.123 13.8517 144.26 13.3426 145.577 13.3426C146.353 13.3426 147.051 13.5056 147.667 13.8314C148.285 14.1572 148.746 14.5645 149.05 15.0532H149.134L149.05 13.6685V9.06628H150.965V23.6467H149.134V22.262H149.05C148.746 22.7507 148.285 23.158 147.667 23.4839C147.051 23.8096 146.353 23.9725 145.577 23.9725ZM145.889 22.262C146.79 22.262 147.557 21.9362 148.188 21.2845C148.818 20.6329 149.134 19.7573 149.134 18.6576C149.134 17.558 148.818 16.6823 148.188 16.0307C147.557 15.3791 146.79 15.0532 145.889 15.0532C145.002 15.0532 144.239 15.3824 143.601 16.0408C142.964 16.6993 142.644 17.5715 142.644 18.6576C142.644 19.7437 142.964 20.6159 143.601 21.2743C144.239 21.9328 145.002 22.262 145.889 22.262ZM157.605 23.9725C156.08 23.9725 154.825 23.4669 153.84 22.4555C152.856 21.444 152.364 20.1781 152.364 18.6576C152.364 17.1371 152.856 15.8712 153.84 14.8598C154.825 13.8483 156.08 13.3426 157.605 13.3426C158.742 13.3426 159.685 13.6141 160.433 14.1572C161.183 14.7003 161.73 15.3858 162.077 16.2139L160.33 16.9267C159.803 15.6777 158.854 15.0532 157.48 15.0532C156.635 15.0532 155.889 15.3927 155.245 16.0714C154.6 16.7502 154.277 17.6122 154.277 18.6576C154.277 19.7029 154.6 20.565 155.245 21.2438C155.889 21.9226 156.635 22.262 157.48 22.262C158.909 22.262 159.893 21.6375 160.433 20.3886L162.139 21.1012C161.792 21.9158 161.235 22.598 160.465 23.1478C159.695 23.6976 158.742 23.9725 157.605 23.9725ZM166.679 23.9725C165.598 23.9725 164.693 23.6671 163.965 23.0562C163.237 22.4452 162.873 21.6375 162.873 20.6329C162.873 19.5468 163.303 18.695 164.163 18.0773C165.023 17.4596 166.083 17.1507 167.345 17.1507C168.468 17.1507 169.39 17.3543 170.111 17.7616V17.4765C170.111 16.7434 169.855 16.1563 169.342 15.7151C168.828 15.2738 168.198 15.0532 167.449 15.0532C166.894 15.0532 166.392 15.1822 165.941 15.4402C165.491 15.6981 165.182 16.051 165.016 16.499L163.268 15.7659C163.504 15.1686 163.969 14.6154 164.662 14.1064C165.355 13.5972 166.27 13.3426 167.407 13.3426C168.711 13.3426 169.793 13.716 170.652 14.4627C171.512 15.2093 171.942 16.2614 171.942 17.6191V23.6467H170.111V22.262H170.028C169.265 23.4024 168.149 23.9725 166.679 23.9725ZM166.991 22.262C167.782 22.262 168.499 21.9735 169.144 21.3965C169.789 20.8196 170.111 20.1374 170.111 19.35C169.571 18.9156 168.759 18.6983 167.677 18.6983C166.748 18.6983 166.048 18.8951 165.577 19.2889C165.106 19.6826 164.87 20.1441 164.87 20.6736C164.87 21.1623 165.085 21.5493 165.515 21.8344C165.945 22.1195 166.437 22.262 166.991 22.262ZM177.543 23.9725C176.406 23.9725 175.466 23.701 174.724 23.158C173.982 22.615 173.438 21.9362 173.091 21.1216L174.797 20.4292C175.338 21.6782 176.26 22.3027 177.563 22.3027C178.16 22.3027 178.649 22.1737 179.029 21.9158C179.411 21.6579 179.602 21.3185 179.602 20.8977C179.602 20.2459 179.137 19.8048 178.208 19.574L176.149 19.0852C175.497 18.9223 174.88 18.6135 174.298 18.1587C173.716 17.7039 173.425 17.0896 173.425 16.3158C173.425 15.4333 173.822 14.7172 174.62 14.1674C175.417 13.6176 176.364 13.3426 177.459 13.3426C178.36 13.3426 179.165 13.5429 179.872 13.9434C180.579 14.3439 181.085 14.9175 181.391 15.6642L179.726 16.3361C179.352 15.4537 178.575 15.0125 177.397 15.0125C176.829 15.0125 176.35 15.1279 175.962 15.3586C175.573 15.5895 175.379 15.9017 175.379 16.2954C175.379 16.8656 175.83 17.2525 176.731 17.4562L178.749 17.9245C179.705 18.1417 180.412 18.515 180.87 19.0445C181.328 19.574 181.556 20.1713 181.556 20.8366C181.556 21.7325 181.183 22.4792 180.434 23.0765C179.685 23.6739 178.721 23.9725 177.543 23.9725ZM187.283 23.8096C186.215 23.8096 185.4 23.5314 184.839 22.9748C184.276 22.4181 183.996 21.6307 183.996 20.6126V15.3791H182.207V13.6685H183.996V10.6139H185.91V13.6685H188.406V15.3791H185.91V20.47C185.91 21.556 186.368 22.099 187.283 22.099C187.629 22.099 187.921 22.0448 188.156 21.9362L188.821 23.5449C188.406 23.7214 187.892 23.8096 187.283 23.8096ZM193.985 23.9725C192.848 23.9725 191.909 23.701 191.168 23.158C190.426 22.615 189.881 21.9362 189.535 21.1216L191.24 20.4292C191.781 21.6782 192.703 22.3027 194.006 22.3027C194.603 22.3027 195.091 22.1737 195.473 21.9158C195.854 21.6579 196.044 21.3185 196.044 20.8977C196.044 20.2459 195.58 19.8048 194.651 19.574L192.592 19.0852C191.94 18.9223 191.324 18.6135 190.741 18.1587C190.158 17.7039 189.867 17.0896 189.867 16.3158C189.867 15.4333 190.266 14.7172 191.063 14.1674C191.861 13.6176 192.807 13.3426 193.903 13.3426C194.804 13.3426 195.608 13.5429 196.315 13.9434C197.023 14.3439 197.529 14.9175 197.833 15.6642L196.17 16.3361C195.795 15.4537 195.019 15.0125 193.84 15.0125C193.271 15.0125 192.793 15.1279 192.405 15.3586C192.017 15.5895 191.823 15.9017 191.823 16.2954C191.823 16.8656 192.273 17.2525 193.175 17.4562L195.192 17.9245C196.149 18.1417 196.856 18.515 197.314 19.0445C197.771 19.574 198 20.1713 198 20.8366C198 21.7325 197.625 22.4792 196.877 23.0765C196.128 23.6739 195.164 23.9725 193.985 23.9725Z" fill="#14142B"/>
  <path d="M46.8141 15.6136C46.8141 11 50.7628 7.26135 55.475 7.26135C58.075 7.26135 59.9274 8.26363 61.3249 9.56818L59.6674 11.175C58.6762 10.2523 57.3275 9.53637 55.475 9.53637C52.0464 9.53637 49.3653 12.2409 49.3653 15.5978C49.3653 18.9546 52.0464 21.6592 55.475 21.6592C57.7012 21.6592 58.9687 20.7841 59.7812 19.9887C60.4474 19.3364 60.8862 18.3978 61.0486 17.125H55.475V14.85H63.3235C63.4047 15.2637 63.4536 15.7409 63.4536 16.2818C63.4536 18 62.9823 20.1159 61.4386 21.6114C59.9274 23.1387 58.01 23.95 55.475 23.95C50.7628 23.95 46.8141 20.2115 46.8141 15.6136ZM69.7095 13.3069C72.7482 13.3069 75.2181 15.5659 75.2181 18.6841C75.2181 21.7864 72.7482 24.0614 69.7095 24.0614C66.6709 24.0614 64.201 21.7864 64.201 18.6841C64.201 15.5659 66.6709 13.3069 69.7095 13.3069ZM69.7095 21.9296C71.367 21.9296 72.8132 20.5933 72.8132 18.6682C72.8132 16.7273 71.367 15.4069 69.7095 15.4069C68.0358 15.4069 66.6059 16.7273 66.6059 18.6682C66.6059 20.5933 68.0521 21.9296 69.7095 21.9296ZM81.7342 13.3069C84.7727 13.3069 87.2427 15.5659 87.2427 18.6841C87.2427 21.7864 84.7727 24.0614 81.7342 24.0614C78.6955 24.0614 76.2256 21.7864 76.2256 18.6841C76.2256 15.5659 78.6955 13.3069 81.7342 13.3069ZM81.7342 21.9296C83.3916 21.9296 84.8377 20.5933 84.8377 18.6682C84.8377 16.7273 83.4078 15.4069 81.7342 15.4069C80.0604 15.4069 78.6305 16.7273 78.6305 18.6682C78.6305 20.5933 80.0767 21.9296 81.7342 21.9296ZM96.4886 13.4819H98.7961V23.1387C98.7961 27.116 96.4074 28.7387 93.5799 28.7387C90.9151 28.7387 89.3063 26.9888 88.7052 25.5569L90.8013 24.6978C91.175 25.5728 92.085 26.607 93.5636 26.607C95.3674 26.607 96.4886 25.5092 96.4886 23.4569V22.6773H96.4074C95.8711 23.3296 94.8311 23.9023 93.5149 23.9023C90.7688 23.9023 88.2501 21.5478 88.2501 18.541C88.2501 15.5023 90.7688 13.1478 93.5149 13.1478C94.8311 13.1478 95.8711 13.7204 96.4074 14.3569H96.4886V13.4819ZM93.7262 21.7864C95.3674 21.7864 96.6673 20.4342 96.651 18.541C96.651 16.6478 95.3674 15.2637 93.7262 15.2637C92.0688 15.2637 90.6713 16.6478 90.6713 18.541C90.6713 20.4183 92.0688 21.7864 93.7262 21.7864ZM100.437 23.6955V7.89772H102.842V23.6955H100.437ZM109.456 21.9296C110.69 21.9296 111.535 21.3409 112.169 20.45L114.038 21.675C113.42 22.55 111.974 24.0614 109.456 24.0614C106.335 24.0614 104.012 21.691 104.012 18.6841C104.012 15.4864 106.368 13.3069 109.196 13.3069C112.039 13.3069 113.437 15.5182 113.892 16.7273L114.136 17.3318L106.79 20.3069C107.36 21.3728 108.221 21.9296 109.456 21.9296ZM109.277 15.3751C108.042 15.3751 106.335 16.4409 106.401 18.5091L111.308 16.5205C111.048 15.8364 110.235 15.3751 109.277 15.3751Z" fill="#14142B"/>
</svg>