<svg xmlns="http://www.w3.org/2000/svg" width="64" height="64" viewBox="0 0 64 64" fill="none">
  <path d="M49.4228 18.3111C49.4228 20.3729 47.7513 22.0444 45.6895 22.0444C43.6276 22.0444 41.9561 20.3729 41.9561 18.3111C41.9561 16.2492 43.6276 14.5778 45.6895 14.5778C47.7513 14.5778 49.4228 16.2492 49.4228 18.3111Z" fill="black"/>
  <path fill-rule="evenodd" clip-rule="evenodd" d="M32.0006 44.4444C38.8735 44.4444 44.445 38.8729 44.445 32C44.445 25.1271 38.8735 19.5555 32.0006 19.5555C25.1277 19.5555 19.5561 25.1271 19.5561 32C19.5561 38.8729 25.1277 44.4444 32.0006 44.4444ZM32.0006 39.4666C36.1243 39.4666 39.4673 36.1237 39.4673 32C39.4673 27.8762 36.1243 24.5333 32.0006 24.5333C27.8769 24.5333 24.5339 27.8762 24.5339 32C24.5339 36.1237 27.8769 39.4666 32.0006 39.4666Z" fill="black"/>
  <path fill-rule="evenodd" clip-rule="evenodd" d="M7.11169 31.0044C7.11169 22.641 7.11169 18.4592 8.73933 15.2648C10.171 12.4549 12.4555 10.1704 15.2654 8.73872C18.4599 7.11108 22.6416 7.11108 31.005 7.11108H32.9961C41.3596 7.11108 45.5413 7.11108 48.7357 8.73872C51.5456 10.1704 53.8301 12.4549 55.2618 15.2648C56.8895 18.4592 56.8895 22.641 56.8895 31.0044V32.9955C56.8895 41.359 56.8895 45.5407 55.2618 48.7351C53.8301 51.545 51.5456 53.8295 48.7357 55.2612C45.5413 56.8889 41.3596 56.8889 32.9961 56.8889H31.005C22.6416 56.8889 18.4599 56.8889 15.2654 55.2612C12.4555 53.8295 10.171 51.545 8.73933 48.7351C7.11169 45.5407 7.11169 41.359 7.11169 32.9955V31.0044ZM31.005 12.0889H32.9961C37.26 12.0889 40.1585 12.0927 42.399 12.2758C44.5813 12.4541 45.6973 12.7773 46.4759 13.174C48.3491 14.1284 49.8721 15.6514 50.8266 17.5247C51.2233 18.3032 51.5465 19.4193 51.7248 21.6016C51.9078 23.842 51.9117 26.7406 51.9117 31.0044V32.9955C51.9117 37.2594 51.9078 40.1579 51.7248 42.3984C51.5465 44.5807 51.2233 45.6967 50.8266 46.4753C49.8721 48.3485 48.3491 49.8715 46.4759 50.826C45.6973 51.2227 44.5813 51.5459 42.399 51.7242C40.1585 51.9072 37.26 51.9111 32.9961 51.9111H31.005C26.7412 51.9111 23.8426 51.9072 21.6022 51.7242C19.4199 51.5459 18.3038 51.2227 17.5253 50.826C15.652 49.8715 14.129 48.3485 13.1746 46.4753C12.7779 45.6967 12.4547 44.5807 12.2764 42.3984C12.0933 40.1579 12.0895 37.2594 12.0895 32.9955V31.0044C12.0895 26.7406 12.0933 23.842 12.2764 21.6016C12.4547 19.4193 12.7779 18.3032 13.1746 17.5247C14.129 15.6514 15.652 14.1284 17.5253 13.174C18.3038 12.7773 19.4199 12.4541 21.6022 12.2758C23.8426 12.0927 26.7412 12.0889 31.005 12.0889Z" fill="black"/>
</svg>