<svg xmlns="http://www.w3.org/2000/svg" width="64" height="64" viewBox="0 0 64 64" fill="none">
  <path d="M39.8887 33.9457C39.7723 33.1078 39.7192 32.3256 39.5478 31.5086C39.3049 30.3511 38.4771 29.3104 37.9039 28.2892C36.7826 26.2918 35.6065 24.0346 33.4796 22.9788C31.4668 21.9795 29.7907 22.372 27.7827 23.0841C26.5508 23.5209 25.7152 25.9424 25.3584 27.0556C24.7743 28.8784 24.4282 30.3973 24.7524 32.3285C25.0001 33.8041 25.5091 36.0272 26.5251 37.1952C27.002 37.7434 27.2704 38.1924 27.8811 38.6093C28.2889 38.8876 28.7558 39.1581 29.116 39.4969C29.7865 40.1276 30.8109 40.232 31.5024 40.9185C32.1108 41.5226 32.99 41.7435 33.1993 42.6786C33.3323 43.2728 33.6388 44.4626 34.4342 44.5064C36.407 44.6153 38.8631 43.8429 40.4266 42.6786C41.1129 42.1675 41.1921 41.0409 40.6387 40.3694C39.9827 39.5733 39.9642 37.9282 39.8887 36.9545C39.8236 36.114 39.3785 35.199 39.7827 34.3519C40.4268 33.0018 40.5807 31.4365 40.366 29.9441C40.0567 27.7946 40.3549 25.9192 38.866 24.1296C38.2951 23.4435 37.5996 22.797 36.9645 22.1664C36.1701 21.3777 35.398 20.5617 34.1918 20.5417C32.3677 20.5115 30.1421 20.5188 28.7372 21.8655C28.1345 22.4433 27.2828 23.1296 27.0024 23.9341C26.4954 25.3883 26.701 26.79 26.866 28.2968C27.1805 31.1695 27.1587 34.6951 29.3887 36.9093C30.0108 37.527 30.3482 36.5693 30.4493 36.112C30.6156 35.3599 30.3233 34.5385 30.2372 33.7953C30.1185 32.7695 29.8466 31.8147 29.5251 30.8316C29.3494 30.2945 28.5483 26.6998 27.419 27.522C26.0796 28.4973 26.3875 32.1384 26.7524 33.3891C27.1381 34.7113 28.1658 37.2334 30.0175 36.7589C31.7511 36.3147 32.2969 34.2609 31.2827 32.9302C30.8055 32.3041 29.0793 30.7669 28.8736 32.4263C28.6647 34.1116 30.0178 36.1628 31.2221 37.1876C31.9908 37.8419 33.602 38.3885 33.9948 36.9845C34.2259 36.1584 32.7098 34.9009 31.9493 35.0589C30.1608 35.4306 32.2244 38.9179 32.6463 39.5946C33.1463 40.3966 36.0892 42.1309 35.4948 40.0384C35.3341 39.4727 33.9164 37.8578 33.2145 38.2934C31.9678 39.067 34.6337 41.8244 35.2978 42.1145C36.2914 42.5485 36.2344 41.5043 35.7978 40.9561C35.4174 40.4785 34.5875 39.8651 34.919 40.9937C35.1467 41.7686 35.8771 43.6031 36.9645 43.3932C38.1144 43.1712 37.477 40.4306 37.2372 39.8128C37.0365 39.2956 36.6204 38.2354 36.0705 37.9624C35.5836 37.7206 35.9707 38.9124 36.0175 39.0305C36.3136 39.7768 37.0748 41.603 38.0857 41.603C39.3173 41.603 38.2165 38.7646 38.0554 38.3761C37.8808 37.9551 37.7051 37.2183 37.2372 37.0071C36.8508 36.8327 37.1917 38.2323 37.2372 38.3761C37.3528 38.7413 38.1493 42.0447 39.0705 41.6331C40.1932 41.1315 39.4686 38.8619 39.2675 38.0451C39.0618 37.2094 38.7847 36.3983 38.5554 35.5704C38.4267 35.1059 38.3797 35.2458 38.4948 35.6456C38.5539 35.8512 38.7945 36.2942 39.0705 36.1571C39.5613 35.9135 39.5011 34.8553 39.5478 34.4196C39.7289 32.7292 39.5722 30.9296 39.4493 29.237C39.3672 28.1055 39.2636 27.2307 38.669 26.2959C37.7845 24.9054 37.6238 23.565 36.1008 22.6027C34.9677 21.8867 33.6387 20.9573 32.3205 21.7001C30.6153 22.661 29.34 24.783 28.6008 26.5291C28.3096 27.2172 28.0119 29.4348 29.3508 28.3569C30.2569 27.6275 30.8336 26.696 31.3054 25.6491C31.7919 24.5692 32.4283 23.4089 32.3054 22.189C32.0637 19.7895 29.5278 23.7232 29.2827 24.2575C28.8153 25.276 27.0731 29.3765 28.8433 30.0042C29.4882 30.2329 30.1837 29.5175 30.5705 29.0866C31.5377 28.0092 32.3218 26.597 32.4948 25.1451C32.5939 24.3133 32.4468 23.1384 31.6008 22.693C30.494 22.1102 29.2641 24.2461 28.8887 24.9495C28.1197 26.3907 27.6288 27.9512 27.5024 29.583C27.4296 30.5222 27.307 31.9933 28.2978 32.5466C29.0843 32.9859 30.0998 31.8298 30.5251 31.3281C31.5973 30.063 32.2744 28.627 32.8433 27.0857C33.2678 25.9356 33.4692 24.5732 33.1387 23.3699C32.8525 22.3278 31.7493 23.8608 31.563 24.1522C30.3989 25.9726 29.8904 28.2586 29.5554 30.3653C29.3774 31.4847 29.0294 33.2912 29.8054 34.2691C31.5684 36.4909 33.9695 30.4586 34.2069 29.6131C34.6108 28.1745 34.8257 26.5751 34.6311 25.0849C34.4439 23.6508 33.5359 25.5877 33.3584 26.0552C32.7696 27.6068 32.5721 29.3704 32.4493 31.0122C32.3627 32.1712 32.1401 33.8079 32.5857 34.9386C32.9963 35.9806 33.8566 35.4302 34.2978 34.7731C35.2513 33.3531 35.5053 31.6218 35.6615 29.9591C35.7935 28.5528 35.7874 27.0584 35.5857 25.6566C35.3522 24.0338 34.7641 27.3803 34.7221 27.6424C34.3853 29.7417 34.1701 31.895 34.1615 34.0209C34.1569 35.1384 33.7766 38.215 35.0402 38.9252C35.7491 39.3236 36.3763 38.3408 36.669 37.8345C37.6166 36.1957 37.6184 33.9563 37.4872 32.1329C37.3942 30.8402 37.233 29.5546 37.0327 28.2742C36.9447 27.7118 36.8949 27.0509 36.616 26.5366C36.2309 25.8265 36.0904 29.1271 36.0933 29.3122C36.103 29.9385 36.6594 38.0575 37.6766 37.5713C38.214 37.3143 38.2696 35.8131 38.313 35.3523C38.5173 33.1789 38.1645 30.8998 37.7751 28.7631C37.7462 28.6044 37.3321 26.9819 37.3281 26.9955C36.987 28.1622 37.1615 29.6383 37.1615 30.8316C37.1615 32.2057 37.0912 33.6094 37.4342 34.9536C37.5732 35.4985 37.8743 36.1363 38.1463 35.2846C38.9944 32.6288 38.2251 29.3485 37.5024 26.7172C37.3112 26.0212 37.2822 26.5249 37.3281 26.9203C37.449 27.9601 37.5969 29.1174 37.9796 30.0945C38.0437 30.2581 38.5105 31.2898 38.8508 30.8768C39.1795 30.478 38.827 29.3336 38.7145 28.9211C38.3159 27.4598 37.5609 26.1058 36.7599 24.8292C36.3278 24.1404 35.8298 23.313 34.9872 23.069C32.8416 22.4477 33.0708 28.8598 33.1008 29.7184C33.1505 31.1362 33.3237 32.5341 33.7448 33.893C33.8089 34.0999 34.2198 35.3995 34.563 34.8032C35.0662 33.9288 34.2201 32.2432 33.8281 31.4785C33.4705 30.7809 32.2124 28.316 31.2372 28.3494C30.1992 28.385 30.2091 30.3781 30.2372 31.0122C30.3169 32.8101 30.7258 34.5849 31.5402 36.2023C31.9348 36.9857 32.627 37.8496 33.5327 38.0527C33.9057 38.1363 34.7377 38.0308 34.6084 37.4659C34.4793 36.9017 33.7238 36.5896 33.2978 36.3076C32.4496 35.7461 31.6491 35.1421 30.7372 34.6828C29.1828 33.9 30.6767 36.5176 30.9721 37.0823C31.4498 37.9959 32.0985 39.1512 33.1236 39.5495C33.5569 39.7179 33.6764 39.4158 33.3205 39.1509C32.6288 38.6357 31.9431 38.1134 31.2372 37.6164C30.9565 37.4188 29.9478 36.3564 29.5554 36.443C29.5336 36.4478 31.3163 38.7664 31.6387 39.0155C32.7392 39.8653 29.4036 37.359 28.2524 36.5784C27.3554 35.9702 27.8549 36.2815 28.3736 36.789C28.8565 37.2616 29.2992 37.7654 29.7675 38.2482C30.1554 38.6482 30.6822 38.4335 31.2372 38.6318C32.0245 38.9133 32.8426 39.8484 33.7524 39.196C34.6307 38.5662 34.5512 38.3648 34.9796 39.5194C35.4945 40.9071 35.7488 42.3767 36.0705 43.8144C36.1802 44.3045 36.3418 43.7137 36.419 43.5135C36.6246 42.9807 36.8776 42.3734 36.8887 41.7986C36.9088 40.7602 36.0591 40.4571 35.3963 41.3247C35.1999 41.5817 34.3788 43.3401 35.3887 42.8817C35.895 42.6519 36.089 42.3235 36.2069 41.7835C36.5653 40.1428 36.5607 38.347 36.419 36.6837C36.3816 36.2446 36.3287 34.1057 35.6539 33.9382C34.8672 33.7429 34.483 36.846 34.4342 37.3005C34.3012 38.5383 34.0591 39.7936 34.2978 41.0313C34.5125 42.1443 35.0346 41.7633 35.3584 40.8959C35.8717 39.5212 35.9119 37.8944 35.8508 36.4505C35.8084 35.4481 35.6876 34.4782 35.4569 33.5019C35.3823 33.1861 35.3099 32.4253 34.9721 32.2157C34.397 31.8588 34.3111 34.2621 34.2978 34.4798C34.256 35.1643 34.0455 37.208 34.169 36.5332C34.6503 33.9052 33.7754 30.7258 32.3584 28.4999C30.6124 25.7571 28.7221 30.406 28.7221 31.9599C28.7221 32.2295 28.7525 33.1788 29.2524 32.9378C30.1371 32.5111 30.0183 30.8736 30.0099 30.1095C30.0014 29.3347 29.8568 27.063 28.9796 26.6194C27.9207 26.0838 27.8984 29.8575 27.8887 30.1547" stroke="#FFD700" stroke-width="1.63463" stroke-linecap="round" stroke-linejoin="round"/>
  <path d="M35.1166 46.6727C35.8372 46.5331 36.5885 46.348 37.306 46.259C37.9455 46.1796 38.8245 45.4292 39.3969 45.1232C39.9228 44.842 40.5806 44.7809 41.0863 44.4462C41.2851 44.3146 41.967 43.389 41.9348 43.9648C41.9149 44.3197 41.4022 44.9287 41.2454 45.2661C40.9652 45.8689 40.329 46.457 39.8135 46.8758C39.2548 47.3297 38.704 47.7049 38.056 48.0266C37.4395 48.3327 36.6571 48.5076 36.1317 48.9744C35.7593 49.3053 36.3858 49.3177 36.6923 49.3731C37.2732 49.4779 37.8639 49.3668 38.3363 49.0421C38.8979 48.656 39.6797 48.2715 40.3287 48.0567C40.9076 47.8651 41.2806 47.5014 41.7984 47.2444C42.0009 47.1438 42.7351 46.9847 42.2757 47.3497C42.0557 47.5244 42.0561 47.9963 41.9348 48.2372C41.7815 48.5416 41.4285 48.8321 41.1696 49.0496C40.6036 49.5251 39.9885 50.0736 39.3439 50.4336C39.0685 50.5874 40.2584 50.708 40.2984 50.7345" stroke="#4D4D4D" stroke-width="1.63463" stroke-linecap="round" stroke-linejoin="round"/>
  <path d="M34.2981 43.2879C34.2981 41.8992 34.4345 40.5503 34.4345 39.1659C34.4345 37.4547 33.9018 35.7664 33.4496 34.1262C32.9804 32.424 32.3897 30.7272 31.2981 29.3122C30.6498 28.4718 29.971 27.0406 28.7375 27.0406C28.0067 27.0406 27.889 27.699 27.889 28.2591C27.889 29.3205 28.4833 30.2418 29.3587 30.8316C30.3245 31.4823 31.561 31.6343 32.6315 32.0502C33.5219 32.3961 34.4278 32.8103 35.086 31.9148C36.3825 30.1507 36.6985 28.0491 36.6163 25.9273C36.6082 25.7183 36.2863 25.0064 36.0406 25.2504C35.5638 25.7238 35.2672 26.6018 35.2527 27.2662C35.1876 30.237 35.5882 33.4647 36.783 36.2023C37.0506 36.8155 37.3218 37.4286 37.6466 38.015C37.898 38.4689 37.9804 39.0057 38.283 39.4216C38.4548 39.6578 39.7415 41.1519 39.2072 40.4446" stroke="#4D4D4D" stroke-width="1.63463" stroke-linecap="round" stroke-linejoin="round"/>
  <path d="M22.9792 45.3188C23.7568 44.5468 24.4062 43.7044 25.055 42.8215C25.473 42.2528 25.3238 42.4188 25.1611 41.934" stroke="#FFD700" stroke-width="1.63463" stroke-linecap="round" stroke-linejoin="round"/>
  <path d="M16.7067 34.2164C17.4425 33.963 18.4174 33.6066 19.0551 33.1634C19.1492 33.098 18.9152 33.7279 18.7521 33.4041" stroke="#FFD700" stroke-width="1.63463" stroke-linecap="round" stroke-linejoin="round"/>
  <path d="M14.6616 21.4894C15.5999 22.1168 16.5196 22.7079 17.6919 22.7079C17.9523 22.7079 18.8056 22.678 18.6162 22.3017" stroke="#FFD700" stroke-width="1.63463" stroke-linecap="round" stroke-linejoin="round"/>
  <path d="M25.0254 14.1782C25.2235 15.0964 25.5738 15.7841 26.1087 16.5476C26.2003 16.6783 26.8582 17.3818 26.5254 16.8861" stroke="#FFD700" stroke-width="1.63463" stroke-linecap="round" stroke-linejoin="round"/>
  <path d="M37.2979 15.6675C37.8955 15.2678 38.5692 14.8375 39.0706 14.3135C39.2152 14.1623 39.7524 13.4464 39.7524 13.5011" stroke="#FFD700" stroke-width="1.63463" stroke-linecap="round" stroke-linejoin="round"/>
  <path d="M45.4792 22.3018C46.8456 21.8588 49.5702 20.9479 49.5702 20.9479" stroke="#FFD700" stroke-width="1.63463" stroke-linecap="round" stroke-linejoin="round"/>
  <path d="M45.6166 33.4042C46.4318 34.1898 47.2089 34.0795 48.2075 34.4572C48.6484 34.624 48.8147 34.4725 48.2075 34.3519" stroke="#FFD700" stroke-width="1.63463" stroke-linecap="round" stroke-linejoin="round"/>
</svg>