<svg xmlns="http://www.w3.org/2000/svg" width="64" height="64" viewBox="0 0 64 64" fill="none">
  <path d="M50.2668 27.9442C48.9224 28.7109 47.8002 29.3887 46.6446 29.9998C44.689 31.0442 42.7113 31.9887 40.4335 32.1442C38.1224 32.2998 36.3113 31.422 35.2224 29.4331C34.5557 28.2109 34.2224 26.8109 33.789 25.4776C33.6224 24.9554 33.6002 24.3776 33.4668 23.5665C32.8002 24.5887 32.289 25.3998 31.7446 26.1887C30.4224 28.122 29.1779 30.1109 27.7335 31.9442C25.7668 34.4665 23.289 34.6776 20.8224 32.6109C19.8557 31.7998 19.0779 30.7442 18.2224 29.7887C17.9668 29.4998 17.7557 29.1776 17.4779 28.8109C16.9779 30.9776 16.5335 33.0442 16.0113 35.0776C14.7891 39.822 10.9891 39.6554 8.28905 37.5776C7.56683 37.022 6.96683 36.2776 6.37794 35.5665C6.00016 35.0776 5.92238 34.4442 6.46683 34.0331C6.95572 33.6554 7.46683 33.922 7.88905 34.322C8.31127 34.7109 8.71127 35.1331 9.16683 35.4665C9.70016 35.8554 10.2446 36.2442 10.8446 36.522C12.5335 37.2998 13.6668 36.8998 14.3557 35.1665C14.8446 33.9442 15.1557 32.6442 15.4779 31.3665C15.7779 30.1776 16.0224 28.9665 16.2668 27.7554C16.4002 27.1331 16.5557 26.5109 17.2335 26.2998C18.0113 26.0554 18.4779 26.5998 18.9113 27.0998C19.4668 27.7331 19.9224 28.4442 20.5113 29.0442C21.2446 29.8109 22.0002 30.5665 22.8335 31.1998C23.9668 32.0554 24.789 32.0109 25.789 30.9998C26.7446 30.0331 27.6668 28.9887 28.4557 27.8776C30.1335 25.4887 31.7224 23.0554 33.3113 20.6109C33.689 20.0331 34.1002 19.6331 34.8002 19.7665C35.4668 19.8887 35.6779 20.4331 35.7668 21.0442C35.9224 22.1331 36.0335 23.2442 36.2446 24.322C36.4335 25.2665 36.6446 26.2331 37.0002 27.122C37.9446 29.4998 39.4113 30.2554 41.9224 29.822C43.8113 29.4998 45.5779 28.822 47.2557 27.922C48.4668 27.2776 49.6335 26.5554 50.8113 25.8665C51.4335 25.4998 52.0779 25.122 52.7668 25.6665C53.4113 26.1887 53.3002 26.922 53.1557 27.6331C53.089 27.9331 52.9779 28.222 52.8779 28.5109C52.6668 29.0887 52.489 29.6887 52.2224 30.2442C50.2668 34.3887 51.6335 37.7998 54.5779 40.822C55.1224 41.3776 55.8446 41.7665 56.5002 42.2109C56.8224 42.4331 57.2224 42.5665 57.5113 42.822C57.7224 42.9998 57.9557 43.3554 57.9002 43.5665C57.8446 43.7998 57.489 44.022 57.2557 44.1331C56.7446 44.3665 56.0557 44.2998 55.5668 44.0998C54.6002 43.6998 53.6224 43.222 52.8224 42.5665C51.0446 41.122 49.8113 39.2331 48.9113 37.122C48.1446 35.322 48.2446 33.4887 48.8335 31.6776C49.2335 30.4998 49.7224 29.3665 50.2668 27.9442Z" fill="black"/>
</svg>