<svg xmlns="http://www.w3.org/2000/svg" width="64" height="64" viewBox="0 0 64 64" fill="none">
<path d="M16.5001 29.4779C15.0667 30.7779 13.6778 31.9112 12.3445 33.3112C10.3889 35.3557 8.56673 37.5223 6.68895 39.6335C6.20006 40.1779 5.81117 40.9779 4.87784 40.5557C4.26673 40.2779 4.26673 39.5779 4.85561 38.4224C5.20006 37.7557 5.58895 37.1112 6.0445 36.5112C8.62228 33.1001 11.6667 30.1557 15.1778 27.7112C15.7778 27.3001 16.4334 26.9223 17.1223 26.689C18.4334 26.2557 19.4445 27.0112 19.3223 28.389C19.2445 29.2779 18.9334 30.1668 18.6667 31.0335C18.1556 32.6779 17.5667 34.289 17.0778 35.9446C16.9445 36.4001 16.7778 37.189 17.0556 37.5335C17.5334 38.0446 18.9556 36.5779 19.5889 35.9001C21.5334 33.8446 23.4112 31.7223 25.3334 29.6446C27.2556 27.5557 29.3778 25.6779 31.8556 24.2668C32.5778 23.8557 33.3556 23.5001 34.1556 23.289C35.4445 22.9446 36.4667 23.8001 36.3778 25.1446C36.3334 25.789 36.1445 26.4557 35.8667 27.0446C35.1556 28.5223 34.3445 29.9446 33.6001 31.4001C32.8223 32.9223 32.0112 34.4446 31.7223 36.5112C32.2667 36.0224 32.6223 35.7446 32.9223 35.4112C34.8778 33.3001 36.7889 31.1557 38.7667 29.0668C40.5667 27.1668 42.489 25.389 44.8112 24.1446C45.689 23.6779 46.6778 23.3112 47.6556 23.1779C49.0112 23.0001 49.9445 24.0335 49.6778 25.3779C49.4778 26.3668 49.0556 27.3223 48.6334 28.2335C47.8223 29.9557 46.9334 31.6335 46.1001 33.3335C45.9112 33.7112 45.3334 34.6001 45.8556 34.689C46.4112 34.1001 46.9667 33.5001 47.5334 32.9223C49.0334 31.3557 50.5001 29.7668 52.0445 28.2446C53.4334 26.8668 54.9778 25.6779 56.9556 25.2335C58.6223 24.8557 59.8001 25.889 59.5334 27.5779C59.4001 28.389 59.1334 29.2223 58.7556 29.9557C57.1112 33.189 55.4112 36.389 53.7223 39.6001C53.5334 39.9446 53.3223 40.3112 53.0223 40.5557C52.7445 40.7779 52.2778 41.0335 52.0112 40.9335C51.7445 40.8335 51.2556 40.4779 51.3112 39.7779C51.3667 39.1335 51.5556 38.6557 51.8112 38.0779C52.989 35.4112 54.2334 32.7779 55.4556 30.1335C55.789 29.4223 56.1445 28.7223 56.489 28.0112C56.6112 27.8001 56.5778 27.7668 56.5112 27.689C56.189 27.5223 55.3001 28.2001 54.9334 28.5557C52.8334 30.5779 50.7667 32.6223 48.7112 34.6779C47.9001 35.489 47.1556 36.3779 46.3445 37.189C45.6778 37.8557 44.8556 38.2335 43.9334 37.789C43.0112 37.3446 42.7556 36.4112 42.9112 35.5223C43.1334 34.2223 43.4112 32.9001 43.9445 31.7112C44.7445 29.9001 45.789 28.189 46.7223 26.4335C46.8778 26.1335 47.0112 25.8112 47.2667 25.2335C46.689 25.4779 46.3334 25.5779 46.0112 25.7557C43.9001 26.9335 42.1112 28.5223 40.5001 30.289C38.5667 32.4112 36.7556 34.6446 34.8445 36.8001C34.0889 37.6557 33.3112 38.5335 32.4112 39.2223C30.6667 40.5779 28.9223 39.8557 28.7001 37.6668C28.6001 36.6335 28.7556 35.5446 29.0001 34.5335C29.6112 31.9668 31.0001 29.7335 32.3112 27.4779C32.5889 27.0001 32.8667 26.5223 33.0445 25.9779C30.9001 26.7668 29.1667 28.1223 27.6001 29.6557C25.1667 32.0335 22.8667 34.5557 20.4889 36.9779C19.8778 37.6001 19.2001 38.2001 18.4556 38.6557C17.1889 39.4224 15.8112 38.8335 15.5001 37.389C15.2667 36.3335 15.2556 35.1668 15.4223 34.1001C15.6556 32.5335 16.6778 29.6557 16.6334 29.4779C16.6334 29.3112 16.5001 29.4779 16.5001 29.4779Z" fill="#81ADC8"/>
</svg>