<svg xmlns="http://www.w3.org/2000/svg" width="64" height="64" viewBox="0 0 64 64" fill="none">
<path d="M57.1557 20.3002C57.5001 20.678 57.5446 21.2335 57.2779 21.678C57.0334 22.0891 56.8223 22.4446 56.5779 22.778C54.0446 26.2891 52.6557 28.1224 50.1557 31.6557C49.5223 32.5446 47.989 35.2669 47.4001 36.2002C47.389 36.2113 47.389 36.2224 47.3779 36.2335C46.8446 37.0335 45.5334 36.978 45.1112 36.1002C45.1112 36.1002 45.1112 36.0891 45.1001 36.0891C44.4779 34.7224 43.9779 33.3113 43.4001 31.9224C41.8112 28.0891 39.6001 24.7668 35.9223 22.5891C34.589 21.8002 34.5668 21.2224 35.6001 20.078C35.989 19.6557 36.3779 19.2224 36.8001 18.8446C40.8779 15.2113 43.689 10.7224 45.789 5.72241C45.9223 5.41129 46.189 5.16685 46.4779 4.92241C46.8557 4.61129 47.4001 4.65574 47.7334 5.01129C48.0112 5.30018 48.2668 5.61129 48.4223 5.95574C48.7668 6.75574 48.8557 7.65574 49.0668 8.51129C50.2001 13.1669 52.7223 16.878 56.5557 19.7335C56.7668 19.8891 56.9557 20.0891 57.1557 20.3002ZM46.9446 9.14463C45.6223 11.3446 44.5112 13.6113 43.0001 15.5891C41.4557 17.6002 39.5223 19.3113 37.7557 21.1668C42.2446 23.8557 44.8446 28.1113 46.4112 33.3335C48.7112 28.578 51.889 24.8002 55.3779 21.2668C49.8668 17.0668 48.5557 15.1669 46.9446 9.14463Z" fill="black"/>
<path d="M15.2556 58.6448C14.2445 55.7781 13.3667 52.8559 12.2556 50.0336C11.1667 47.3003 9.5445 44.867 7.21117 42.9892C6.35561 42.3003 6.37784 41.6781 7.07784 40.9003C11.0112 36.6225 14.0334 31.7781 16.2001 26.3892C16.4334 25.8114 17.0556 24.8892 17.489 24.8892C18.6667 24.6114 19.089 26.9114 19.1334 27.1225C20.1223 32.5448 23.4778 36.4892 27.2445 40.1781C28.4667 41.3781 28.5667 41.7448 27.3667 42.9003C22.8445 47.2337 19.8445 52.567 17.2667 58.1781C16.4556 60.1337 15.3778 58.9892 15.2556 58.6448ZM8.56673 41.667C10.9667 43.1892 12.5556 45.2225 13.7112 47.5225C14.8334 49.7781 15.6556 52.167 16.589 54.4559C18.7445 49.6336 21.6556 45.1781 26.0778 41.7892C21.8001 38.4225 18.4223 34.5781 17.389 29.067C15.5334 34.0225 12.5889 38.1448 8.56673 41.667Z" fill="#81ADC8"/>
<path d="M45.6222 46.6892C43.1666 49.9892 41.6666 53.7559 40.2888 57.5893C40.2 57.8337 39.9111 59.2226 38.8555 59.2115C38.5555 59.2115 38.0555 58.7337 37.8666 58.3559C37.0333 56.6559 36.5111 54.7559 35.4555 53.2226C34.2111 51.4004 32.5 49.9004 31.0555 48.2226C30.8444 47.9781 30.7666 47.4226 30.9 47.1226C31.1555 46.567 31.6111 46.1226 31.9666 45.6115C33.7777 42.9448 35.5555 40.2559 37.4222 37.6337C37.8111 37.0893 38.5777 36.4337 39.0333 36.4337C40.1666 36.4226 40.3888 37.3115 40.5888 37.9448C41.5 40.8559 43.0666 43.2893 45.3444 45.3004C46.1555 46.0559 45.7222 46.5559 45.6222 46.6892ZM33.1444 47.4559C35.7888 49.3337 37.5888 52.0448 38.6777 55.0781C40.2888 52.1226 41.9333 49.1115 43.6222 46.0004C41.3555 44.4337 39.7777 41.5115 39.0555 39.3559C37.0777 42.067 35.1222 44.7448 33.1444 47.4559Z" fill="#CD4631"/>
</svg>