<svg xmlns="http://www.w3.org/2000/svg" width="64" height="64" viewBox="0 0 64 64" fill="none">
  <path d="M31.0778 31.5441C31.2111 31.0107 31.2889 30.5774 31.4333 30.1552C32.8778 25.8885 35.2 22.0885 37.8444 18.4774C38.1555 18.0552 38.5444 17.6552 38.9778 17.3885C39.2111 17.2441 39.6778 17.2663 39.9444 17.4107C40.1444 17.5218 40.2889 17.9552 40.2444 18.1996C40.1667 18.6663 40 19.1441 39.7667 19.5663C38.2333 22.3552 36.6889 25.133 35.1222 27.8996C34.5333 28.933 33.9111 29.9552 33.3 30.9774C33.1 31.3218 32.8778 31.6552 32.6444 31.9663C32.3889 32.3218 32 32.533 31.6111 32.2996C31.3555 32.1441 31.0778 32.033 31.0778 31.5441Z" fill="#CD4631"/>
  <path d="M46.8111 48.0889C46.2778 48 45.6556 47.9333 45.0556 47.8C42.6889 47.2666 40.3222 46.7333 37.9667 46.1778C37.4556 46.0555 36.9556 45.8444 36.5 45.6C35.8889 45.2778 35.6778 44.8222 35.7778 44.3222C35.8778 43.8222 36.2778 43.5111 36.9778 43.5C37.4556 43.4889 37.9667 43.5 38.4222 43.6111C41.4111 44.3666 44.4 45.1444 47.3778 45.9333C47.7111 46.0222 48.0556 46.1777 48.3111 46.4C48.9556 46.9444 48.7556 47.8 47.9333 48.0111C47.6111 48.0889 47.2444 48.0555 46.8111 48.0889Z" fill="#CD4631"/>
  <path d="M15.589 18.2998C15.6335 17.7776 15.7446 17.2553 15.8779 16.7442C16.0001 16.2887 16.3112 15.9665 16.8112 15.922C17.2335 15.8887 17.689 16.3109 17.7557 16.8665C17.8446 17.6109 17.9224 18.3665 17.889 19.1109C17.789 21.3553 17.6446 23.6109 17.489 25.8553C17.4335 26.5998 17.3335 27.3442 17.2112 28.0887C17.1668 28.3442 17.0779 28.6109 16.9335 28.8109C16.5446 29.3776 15.8335 29.3331 15.5557 28.722C15.4001 28.3776 15.3335 27.9553 15.3335 27.5776C15.2779 26.3331 15.4446 20.1442 15.589 18.2998Z" fill="#CD4631"/>
</svg>