<svg xmlns="http://www.w3.org/2000/svg" width="64" height="64" viewBox="0 0 64 64" fill="none">
<path d="M23.8889 23.9557C22.7778 23.1557 21.9667 22.5668 21.1556 21.9891C17.8889 19.6446 14.6 17.3113 11.3556 14.9335C10.5778 14.3668 9.84449 13.6668 9.30005 12.8891C8.98893 12.4224 8.88893 11.5891 9.10005 11.1002C9.22227 10.8113 10.2223 10.6557 10.7 10.8224C11.8667 11.2113 13 11.7446 14.0667 12.3557C17.3889 14.2779 20.6778 16.2668 24.1112 18.3113C24.4223 16.2668 24.6889 14.2335 25.0667 12.2224C25.3556 10.6668 25.7556 9.11128 26.1889 7.58906C26.4667 6.60017 27.0556 5.74462 28.2445 5.91128C29.4778 6.07795 29.8778 7.05573 29.8556 8.15573C29.8112 11.4335 29.7 14.7002 29.6334 17.978C29.6112 18.7557 29.6334 19.5335 29.6334 20.3113C29.7556 20.4224 30.8 19.4891 31.2889 19.0113C35.4667 14.9224 39.6445 10.8557 43.8667 6.81128C44.4556 6.24462 45.2 5.76684 45.9556 5.45573C46.3556 5.28906 47.1112 5.41128 47.3778 5.70017C47.6445 5.98906 47.7 6.74462 47.5112 7.13351C47.1556 7.87795 46.6223 8.55573 46.0556 9.16684C42.3334 13.2557 38.5889 17.3224 34.8556 21.4002C34.4445 21.8446 34.0334 22.3113 33.4223 22.9891C36.2223 22.7891 38.7445 22.5668 41.2667 22.4335C46.3445 22.178 51.4334 21.9668 56.5112 21.7446C56.8223 21.7335 57.1556 21.7335 57.4223 21.7891C59.1667 22.1557 59.0112 23.9002 57.7001 24.1224C56.1 24.4002 54.4889 24.7446 52.8667 24.9113C47.0556 25.4891 41.2445 26.0002 35.4334 26.5446C35.3112 26.5557 35.2 26.6002 34.8334 26.7002C36.4334 27.9557 37.9112 29.1113 39.3889 30.2557C42.1778 32.4335 45 34.5779 47.7445 36.8002C48.4778 37.4002 49.1223 38.1891 49.5889 39.0113C50.0889 39.878 49.5667 40.6224 48.6112 40.3891C47.4445 40.0891 46.2445 39.6113 45.2556 38.9335C40.4334 35.6446 35.6778 32.2557 30.9 28.9002C30.3667 28.5224 29.8334 28.1446 29.0556 27.5779C28.8889 30.1002 28.7556 32.3668 28.5778 34.6335C28.0445 41.3779 27.5112 48.1224 26.9556 54.8668C26.8889 55.6113 26.7445 56.3668 26.5223 57.078C26.2223 58.0557 25.5556 58.7002 24.4778 58.6224C23.4667 58.5446 22.8778 57.8668 22.7 56.9113C22.5334 56.0002 22.4445 55.0668 22.4556 54.1446C22.5223 48.1224 22.6223 42.1113 22.7112 36.0891C22.7223 35.6446 22.7112 35.2113 22.7112 34.4446C22.2 34.9335 21.8445 35.2557 21.5 35.6002C17.6556 39.4446 13.8112 43.3002 9.9556 47.1446C9.52227 47.578 9.03338 48.0113 8.47782 48.2557C8.10005 48.4224 7.43338 48.4113 7.14449 48.178C6.8556 47.9446 6.78894 47.2891 6.78894 46.9002C6.80005 45.678 7.4556 45.1335 8.03338 44.4335C11.4334 40.3113 14.8889 36.2224 18.3667 32.1557C19.6223 30.6891 20.9889 29.3224 22.6 27.6113C19.5889 27.9557 16.9778 28.2891 14.3667 28.5335C11.8556 28.7668 9.34449 28.9113 6.82227 29.0891C6.5556 29.1113 6.27782 29.0668 6.03338 29.0335C4.7556 28.8779 5.47782 27.5224 5.84449 27.4335C8.36671 26.8113 10.9112 26.2113 13.4667 25.7446C16.5 25.2224 23.2 24.1891 23.8889 23.9557Z" fill="black"/>
</svg>