<svg xmlns="http://www.w3.org/2000/svg" width="64" height="64" viewBox="0 0 64 64" fill="none">
  <g clip-path="url(#clip0_301_11186)">
    <path d="M29.2576 4.29483C29.7878 2.11128 32.9604 2.32666 33.1906 4.56184L34.5884 18.1355C34.7443 19.6492 36.4665 20.4413 37.7172 19.5744L51.8175 9.80119C53.5936 8.57018 55.7892 10.6401 54.6648 12.4856L47.8371 23.692C47.1324 24.8486 47.757 26.3566 49.0731 26.6761L64.6164 30.4501C66.5363 30.9162 66.6897 33.5875 64.8358 34.2704L48.7802 40.1838C47.5402 40.6405 47.0761 42.1528 47.8464 43.2265L53.8441 51.5863C55.1143 53.3567 53.0393 55.5938 51.1785 54.4601L40.308 47.8371C39.1513 47.1324 37.6434 47.757 37.3239 49.0731L34.6283 60.1751C34.102 62.3426 30.9591 62.1521 30.6985 59.9369L28.7715 43.5574C28.5866 41.9865 26.7376 41.2416 25.5154 42.2458L15.0112 50.8769C13.2297 52.3407 10.7943 50.1256 12.0832 48.2137L21.8859 33.6721C22.8086 32.3034 21.7696 30.4693 20.1213 30.557L11.2476 31.0291C8.86029 31.1561 8.30229 27.7454 10.6056 27.105L18.1633 25.0037C19.5696 24.6128 20.0969 22.8958 19.1526 21.7829L12.4416 13.8735C10.9724 12.1419 13.0679 9.69002 15.0072 10.8716L23.692 16.1629C24.8486 16.8676 26.3566 16.243 26.6761 14.9269L29.2576 4.29483Z" fill="black"/>
  </g>
  <defs>
    <clipPath id="clip0_301_11186">
      <rect width="64" height="64" fill="white"/>
    </clipPath>
  </defs>
</svg>