<svg xmlns="http://www.w3.org/2000/svg" width="64" height="64" viewBox="0 0 64 64" fill="none">
  <g clip-path="url(#clip0_301_11145)">
    <path d="M13.2324 48.6477C11.7318 46.614 10.2385 49.3491 10.9229 50.9302C11.196 51.5612 11.2224 52.3214 11.9479 52.5343C12.1725 52.6001 12.3729 52.8703 12.621 52.8703C13.0395 52.8703 13.1951 52.7689 13.5658 52.642" stroke="#4D4D4D" stroke-width="0.698182" stroke-linecap="round" stroke-linejoin="round"/>
    <path d="M13.788 52.9844C14.093 54.5893 14.2114 56.3461 14.9859 57.7776C15.5721 58.8608 16.7725 59.9081 18.0056 60.0664C18.8072 60.1693 19.4663 60.3944 20.2965 60.1995C20.9339 60.0499 21.5177 59.7852 22.1367 59.6036C22.6491 59.4532 23.093 59.0864 23.4582 58.6906C23.9248 58.1849 24.1147 57.5243 24.4832 57.0041C24.7327 56.6519 24.792 55.8627 24.792 55.4317C24.792 54.8551 24.9031 54.335 24.9031 53.7579C24.9031 52.5122 24.4585 51.3071 24.4585 50.0742C24.4585 49.7135 24.2567 49.3688 24.2362 48.9901C24.2094 48.4943 24.0956 47.838 24.0077 47.3416C23.9266 46.8836 23.7916 46.4079 23.7916 45.9341C23.7916 45.1533 23.4957 45.9344 23.1247 45.6805" stroke="#4D4D4D" stroke-width="0.698182" stroke-linecap="round" stroke-linejoin="round"/>
    <path d="M12.231 47.05C11.959 46.0376 12.1531 44.9733 11.7308 44.0194C11.4744 43.4403 11.7718 42.561 11.8728 41.9905C11.9456 41.5794 11.8975 41.1336 11.8975 40.7162C11.8975 40.3548 12.1727 40.1511 12.2248 39.8032C12.2751 39.4674 12.0874 39.1271 11.7864 38.9726C11.4966 38.8239 11.6294 38.9191 11.8358 38.719C11.9516 38.6067 12.3908 38.4089 12.3359 38.2118C12.2984 38.0769 12.1258 38.1371 12.5768 38.0343C12.951 37.9489 13.4225 37.5778 13.7871 37.5778C14.1737 37.5778 14.411 37.4959 14.8122 37.3495C15.2476 37.1905 15.4495 37.6127 15.7384 37.5587C16.0802 37.4949 16.3341 37.0198 16.7264 37.0198C16.7688 37.0198 16.9448 37.2277 17.1463 37.2354C17.4539 37.2471 17.813 37.4548 18.122 37.3241C18.3278 37.2371 18.1541 37.6295 18.3999 37.6855C18.9476 37.8105 19.4802 37.2505 19.956 37.0705C20.4134 36.8975 20.2193 37.085 20.098 37.3495C20.0218 37.516 21.0177 37.5166 21.2096 37.5524C21.7253 37.6487 21.4781 37.6167 21.1849 37.8631C20.7929 38.1923 21.3634 38.2625 21.6295 38.2625C22.1644 38.2625 22.0276 38.2236 22.0123 38.6302C21.9961 39.0624 22.0873 39.0243 22.3458 39.2896C22.5193 39.4677 22.535 39.7514 22.7348 39.911C22.9261 40.0637 23.3462 39.7458 23.2226 40.1582C23.1012 40.5635 22.8167 40.9049 22.7039 41.3185C22.6306 41.5874 23.2128 41.5493 23.3461 41.6862C23.7002 42.0497 23.3191 42.182 23.2412 42.5421C23.1811 42.8197 23.3923 42.9078 23.4511 43.1191C23.5199 43.3663 23.125 43.4792 23.2597 43.7404C23.4063 44.0248 23.4581 43.9675 23.235 44.311" stroke="#4D4D4D" stroke-width="0.698182" stroke-linecap="round" stroke-linejoin="round"/>
    <path d="M11.1198 38.9473C10.8722 39.0961 10.0099 39.5441 10.6752 39.8856C10.9534 40.0284 10.6125 39.8369 10.6814 40.3675C10.7628 40.9946 10.951 40.9209 10.5085 41.515C10.1521 41.9935 10.4911 42.2022 10.2553 42.7133C10.1213 43.0037 10.0203 43.3935 10.0083 43.7151C9.98952 44.2163 11.0977 44.427 10.8296 44.8246C10.7133 44.9971 10.3751 45.2394 10.3911 45.4777C10.4168 45.8595 11.0329 46.2424 11.2742 46.4794C11.3928 46.5959 11.7349 46.9043 11.5397 47.05C11.3182 47.2154 11.5401 47.1991 11.6509 47.3924C11.7424 47.5521 11.9596 47.8489 11.9596 47.8489C11.9596 47.8489 11.854 47.03 11.7188 46.6443C11.5983 46.3006 11.3974 46.0583 11.1692 45.7947C11.0793 45.6909 11.3403 45.5738 11.4039 45.4967C11.8525 44.9523 11.9967 43.4995 11.231 43.1064C11.0928 43.0355 11.2758 43.4529 11.3977 43.5502C11.626 43.7326 11.6609 42.7537 11.6509 42.6626C11.5902 42.1101 11.3982 41.7438 11.021 41.3565C10.7632 41.0919 10.8489 41.1448 11.126 41.1093C11.4784 41.064 11.8951 40.6886 11.5088 40.3802C11.2382 40.164 11.6261 41.179 11.7867 41.3439" stroke="#4D4D4D" stroke-width="0.698182" stroke-linecap="round" stroke-linejoin="round"/>
    <path d="M13.0095 47.7347C13.1693 47.9447 13.4285 48.1159 13.5653 48.3307C13.6908 48.5278 13.6853 48.78 13.7876 48.9901C14.0459 49.5205 14.2322 48.6346 14.2322 48.3941C14.2322 48.1869 14.0249 47.3374 13.8123 47.9376C13.7647 48.072 13.8966 47.6937 13.8987 47.5952C13.9065 47.2357 13.8975 46.8751 13.7876 46.5301C13.6128 45.9817 13.1842 45.3399 12.7872 44.9323C12.6876 44.8301 12.9834 45.1664 13.1207 45.1986C13.4282 45.2708 13.56 45.0536 13.5653 44.7675C13.569 44.5673 13.1297 42.928 12.7008 43.4234C12.6804 43.4468 13.4541 43.7816 13.4541 43.1127C13.4541 42.8352 12.9475 42.4743 13.4541 42.821C13.9461 43.1578 14.5437 42.8313 14.8312 42.3772C15.1994 41.7957 14.4843 41.7041 15.072 42.3075C15.6031 42.8528 16.4132 42.5033 16.8319 41.9778C16.9394 41.8429 17.3558 42.3806 17.789 42.3012C18.0216 42.2585 18.8418 41.6393 19.0117 41.8573C19.5326 42.5258 20.6483 42.3984 21.3459 42.3709C21.6141 42.3603 22.7864 41.5375 22.3463 41.255C22.0715 41.0787 22.0093 41.8985 22.4574 41.5467C23.0722 41.0639 22.7091 40.4246 22.2351 40.0631C21.7562 39.6978 22.2985 39.9675 22.2104 39.4924C22.0971 38.8818 21.3783 38.0276 20.7037 38.4527C19.8141 39.0132 21.0742 39.5893 21.0742 38.8965C21.0742 37.9757 19.3871 37.5988 18.7524 37.9454C18.1187 38.2915 19.0341 38.3365 18.7091 38.199C18.2947 38.0238 17.8077 37.9533 17.363 37.9264C17.184 37.9156 16.8349 37.9924 16.6837 37.863C16.4549 37.6672 15.9035 37.4983 15.6154 37.4065C14.6221 37.09 14.741 37.9892 15.1152 38.6936C15.4736 39.3683 13.9643 38.9453 13.6826 38.9028C12.9278 38.7888 12.4798 39.8475 13.275 39.8475C13.5704 39.8475 13.3431 39.7223 13.2133 39.689C12.7964 39.582 12.4282 39.7509 12.1265 40.0504C11.4379 40.7338 11.7182 42.2285 12.8737 41.851C13.2705 41.7214 12.796 41.4833 12.602 41.4833C12.0081 41.4833 11.2808 41.8581 11.0829 42.4597C10.7166 43.5729 13.4729 42.1534 13.7876 41.889C13.9971 41.7131 14.2215 41.5312 13.9605 41.3184C13.7553 41.1511 13.1303 40.7605 13.3924 40.7605C13.54 40.7605 14.1479 41.3279 14.3433 41.4072C14.6639 41.5373 15.2249 41.6981 15.5166 41.4072C16.1959 40.7297 14.8678 40.4152 14.9238 40.5703C15.3435 41.7337 17.4065 41.0426 18.0484 40.5703C18.2973 40.3872 18.322 40.0829 17.9619 40.2786C17.5708 40.4912 17.2495 40.9973 17.4185 41.4579C17.818 42.5464 20.2528 41.9983 20.432 40.9634C20.4873 40.644 19.9116 40.4995 19.7033 40.621C19.1699 40.9322 19.6339 41.527 20.0491 41.6037C21.1349 41.8044 23.0209 40.5112 21.3397 39.7714C20.9754 39.6111 20.2968 39.5231 20.0368 39.9236C19.7185 40.4138 20.6733 40.3911 20.8951 40.3484C22.8313 39.9756 20.5555 38.8796 19.9689 38.5478C19.4975 38.2811 18.3041 37.4938 18.7215 38.6936C18.7747 38.8466 18.4496 38.3827 18.3942 38.3258C18.0715 37.9945 17.6138 37.748 17.1715 37.6538C16.6487 37.5424 15.993 37.5437 15.5969 37.9708C15.3364 38.2516 15.6511 38.347 15.8995 38.3702C15.9836 38.3781 16.4905 38.396 16.2638 38.199C15.9297 37.9088 15.4262 37.9108 15.0164 37.863C14.7161 37.828 14.0363 37.7293 13.9296 38.1673C13.8189 38.6218 14.238 39.3568 14.5903 39.6066C14.9683 39.8745 14.6463 39.6328 14.4298 39.5432C14.0881 39.4017 13.5422 39.2194 13.1701 39.3149C12.7287 39.4282 13.7111 39.8213 13.7629 39.8348C14.511 40.0308 15.3918 39.8972 16.1094 39.6319C16.2826 39.5679 17.0103 39.2187 16.764 38.9218C16.6686 38.8069 16.3588 38.6123 16.2576 38.8331C16.0033 39.3879 17.8946 39.1274 18.0978 38.9979C18.3051 38.8658 17.2765 38.5458 17.4185 39.2896C17.5721 40.0935 18.8653 40.1098 19.3205 39.6066C19.7799 39.0986 18.8971 39.0334 19.1723 39.4924C19.485 40.0142 19.7299 39.4202 18.9376 39.2325C17.754 38.9521 16.9946 39.4589 15.8624 39.6192C15.0889 39.7288 15.1548 40.0698 14.6768 40.5956C14.208 41.1114 13.7537 40.8874 13.238 41.1853C12.7341 41.4763 13.064 42.7793 13.0033 43.2775C12.9451 43.7559 12.02 43.3894 11.861 44.0891C11.7663 44.5056 12.0471 44.9469 12.3488 45.205C12.4879 45.324 12.9646 45.4045 13.0404 45.56C13.1426 45.7699 12.5781 45.5281 12.355 45.579C12.0591 45.6465 12.1175 46.0777 12.1821 46.2955C12.3693 46.9273 12.7896 47.4071 12.8984 48.0771" stroke="#4D4D4D" stroke-width="0.698182" stroke-linecap="round" stroke-linejoin="round"/>
    <path d="M13.1211 51.1585C12.894 50.8379 12.7726 50.6571 12.7876 50.2708C12.7974 50.0191 12.9384 50.1594 12.7382 49.9538C12.5863 49.7979 12.2384 49.7757 12.1207 50.0172" stroke="#4D4D4D" stroke-width="0.698182" stroke-linecap="round" stroke-linejoin="round"/>
    <path d="M16.2325 47.2782C16.5877 46.8114 16.9966 46.6646 17.5417 46.5047C17.8359 46.4184 18.3885 46.4557 18.3444 46.3652" stroke="#4D4D4D" stroke-width="0.698182" stroke-linecap="round" stroke-linejoin="round"/>
    <path d="M21.6797 46.137C22.1286 46.047 22.6392 45.8882 23.0135 46.2511C23.1464 46.38 23.841 46.7076 23.4581 46.7076" stroke="#4D4D4D" stroke-width="0.698182" stroke-linecap="round" stroke-linejoin="round"/>
    <path d="M18.1224 48.7618C18.1225 48.7618 18.1225 48.7618 18.1225 48.7618" stroke="#4D4D4D" stroke-width="0.698182" stroke-linecap="round" stroke-linejoin="round"/>
    <path d="M22.457 48.6477C22.4571 48.6477 22.4571 48.6477 22.4571 48.6477" stroke="#4D4D4D" stroke-width="0.698182" stroke-linecap="round" stroke-linejoin="round"/>
    <path d="M20.567 47.8489C20.567 49.2573 21.5486 50.6059 21.907 51.8939C22.0596 52.4422 21.8622 52.5279 21.2895 52.5279C20.7319 52.5279 20.4471 52.4844 20.1224 52.9844" stroke="#4D4D4D" stroke-width="0.698182" stroke-linecap="round" stroke-linejoin="round"/>
    <path d="M38.1786 34.6242C37.448 34.0962 36.9948 34.1673 36.3286 34.7844C35.7063 35.3608 35.5057 36.4296 36.0652 37.1164C36.933 38.1819 38.8949 37.8601 39.5386 36.7421C39.851 36.1995 39.7554 36.622 39.9612 36.7884C40.4733 37.2025 40.7365 37.2333 41.2509 36.7458C41.8694 36.1596 42.3718 33.7956 40.8468 34.1077C40.6773 34.1424 40.1329 34.5193 40.3891 34.4669C40.7282 34.3975 40.7211 33.98 40.637 33.7168C40.4125 33.0149 39.4306 32.6726 38.8123 32.9334C38.3503 33.1283 38.2329 33.6955 37.8613 33.91C37.5021 34.1174 36.0782 35.3317 37.181 35.2001" stroke="#4D4D4D" stroke-width="0.581818" stroke-linecap="round" stroke-linejoin="round"/>
    <path d="M29.3099 37.9321C28.7461 37.8221 28.0819 37.6577 27.9394 38.4234C27.8335 38.9928 28.4154 39.7082 29.019 39.6129C29.2295 39.5797 29.9228 39.2561 30.0598 39.3931C30.4041 39.7374 30.6116 39.3404 30.8227 39.0052C31.0691 38.6139 30.696 37.3545 30.1827 37.2404C29.8565 37.1679 28.57 38.0858 28.7281 38.1648" stroke="#4D4D4D" stroke-width="0.581818" stroke-linecap="round" stroke-linejoin="round"/>
    <path d="M38.6439 16.3295C39.282 15.5011 40.4312 14.6343 41.555 14.6968C42.0556 14.7246 42.3005 15.8517 42.4607 16.2129C43.0291 17.4937 40.1662 17.6605 40.7399 18.9534C40.8488 19.1988 41.1753 19.2916 41.3868 19.4264C41.8358 19.7125 41.9044 19.5776 41.9044 19.1284C41.9044 18.7806 41.1508 17.8764 41.555 17.6382C42.652 16.992 42.4156 15.2799 41.031 15.2799C39.9669 15.2799 38.411 15.4755 38.411 16.8543C38.411 17.5414 38.9919 17.3391 39.2779 16.9709C39.6232 16.5263 39.8687 15.9796 40.507 15.9796C40.9553 15.9796 41.8334 15.8063 41.9044 16.4461C41.9164 16.5546 42.1504 17.0696 42.1114 17.1199C41.9495 17.3284 41.7874 17.6427 41.6715 17.9038C41.4772 18.3416 40.8564 18.2838 40.8564 18.8368C40.8564 19.2061 40.8763 19.2699 41.0893 19.5365C41.1597 19.6247 41.5711 19.8603 41.4386 19.5948" stroke="#CD4631" stroke-width="0.698182" stroke-linecap="round" stroke-linejoin="round"/>
    <path d="M42.2531 21.2275C42.2774 22.1976 42.7517 21.6036 42.3955 21.3182C42.1596 21.1293 42.0937 21.6466 42.3696 21.7847C42.6796 21.9399 42.6079 21.1573 42.5119 21.2535C42.2622 21.5036 42.7924 22.1789 42.2531 22.0439" stroke="#CD4631" stroke-width="0.698182" stroke-linecap="round" stroke-linejoin="round"/>
    <path d="M36.1194 6.10567C34.603 4.16764 31.9587 4.76729 30.3273 6.27998C28.7387 7.75295 27.7624 11.4467 29.2273 13.281C29.6347 13.7912 29.9935 14.358 30.474 14.8015C30.6454 14.9597 30.0338 14.9655 29.8033 14.9997C29.0896 15.1057 28.7381 15.8772 28.9331 16.5413C29.0353 16.8897 29.3212 17.1291 29.6661 17.2071C29.904 17.261 29.9561 17.345 29.6825 17.3724C29.041 17.4366 28.5846 17.471 28.1448 18.0091C27.4956 18.8035 27.7888 19.4896 28.5581 20.0064C29.3357 20.5289 29.1921 20.7592 28.4682 21.1957C27.8946 21.5416 27.6793 22.2434 27.4807 22.8742C27.1372 23.9653 26.648 25.6099 27.6143 26.4851C28.8242 27.5809 30.6355 27.6233 32.1403 27.3436C32.6403 27.2507 33.2355 27.2081 33.6262 26.8432C33.7316 26.7447 34.0179 26.3915 33.7176 26.3274C33.1821 26.213 32.9879 27.1731 32.96 27.506C32.7625 29.8653 36.285 30.6708 37.9842 30.3771C39.088 30.1863 40.0536 29.6533 40.9206 28.9626C41.6029 28.419 42.563 27.816 43.015 27.0422C43.2331 26.6688 43.1533 27.1044 43.2813 27.4447C43.5874 28.259 44.4707 28.103 45.1364 27.9028C46.0361 27.6324 46.8423 27.0539 47.3857 26.2829C47.4654 26.1698 47.8676 25.4227 47.9351 25.5245C48.761 26.7694 49.2553 25.0178 49.9615 24.5944C50.0797 24.5236 50.3009 25.3285 50.3691 25.4597C50.8848 26.4517 51.4226 27.3429 52.5858 27.6342C55.0757 28.2578 57.6831 27.2021 59.4056 25.4078C60.131 24.6521 60.5314 23.6074 59.613 22.7702C59.3908 22.5676 60.0915 22.8022 60.2224 22.7926C60.9423 22.7402 61.985 22.6496 62.5092 22.0869C63.1067 21.4455 63.4285 20.8768 63.1921 19.9799C63.0267 19.3526 62.664 18.9799 62.0691 18.7451C61.8073 18.6418 61.2806 18.6226 61.6637 18.3803C62.0482 18.1372 62.2268 17.5242 62.2616 17.0925C62.3164 16.4111 61.8486 15.947 61.2435 15.7161C60.9707 15.6119 60.1319 15.72 60.2722 15.706C60.7392 15.6592 60.9959 13.8287 60.9611 13.4791C60.8063 11.9254 59.2503 10.7147 57.6719 10.8159C57.4104 10.8326 57.1426 10.9881 57.3407 10.7179C57.5682 10.4076 57.5798 9.85141 57.671 9.49261C58.1848 7.47178 57.3549 5.76458 55.7779 4.47213C54.48 3.40836 52.4809 2.82332 50.919 3.55756C50.8181 3.60499 50.1625 4.36648 50.3607 4.34664C50.6632 4.31637 50.5665 3.58991 50.5253 3.43005C50.3327 2.68094 49.4514 2.05998 48.8084 1.73012C47.861 1.2441 46.4901 1.41166 45.4945 1.68621C44.6171 1.92817 43.956 2.50051 43.5033 3.26844C43.2635 3.67537 43.4668 4.01536 43.1697 3.74295C42.6879 3.30119 42.511 3.01175 41.7577 3.07355C40.8701 3.14637 40.0603 3.37886 39.3554 3.93391C38.9944 4.21812 38.6714 4.83496 38.7186 5.30906C38.7193 5.31631 38.6194 4.85998 38.549 4.68225C38.1696 3.72469 36.9002 3.75724 36.2264 4.43184C35.9426 4.71602 35.7803 5.14841 35.7482 5.54672C35.7315 5.75505 35.6148 6.4181 35.5572 5.84004" stroke="#4D4D4D" stroke-width="0.581818" stroke-linecap="round" stroke-linejoin="round"/>
    <path d="M45.2607 9.56602C45.0897 8.58766 46.1694 8.47954 46.9427 8.2832C47.5566 8.12735 48.1413 7.99771 48.7283 8.33503C49.1103 8.55451 49.6473 9.11694 49.6794 9.56602C49.7985 11.2369 48.3363 12.2483 46.7292 12.2483C46.0562 12.2483 46.0817 13.4599 46.0758 13.881C46.0664 14.5611 45.9065 15.2187 45.9852 15.9024C46.0069 16.0905 46.1185 17.128 46.4252 16.777C46.9332 16.1956 47.0074 14.9589 47.0074 14.2308C47.0074 13.5375 46.8139 12.9328 47.5315 12.6564C48.1662 12.412 48.9379 12.1311 49.3623 11.5486C49.9724 10.7113 50.0919 9.54627 49.4465 8.69785C48.901 7.9809 47.3751 7.94879 46.5416 7.93334C45.449 7.91307 44.9472 8.54242 44.3937 9.4494C44.0624 9.99228 44.2296 10.9061 45.0277 10.7063C45.8807 10.4928 46.4741 9.99647 47.0721 9.39757C47.3921 9.07712 48.2805 9.29641 48.6378 9.47531C49.0631 9.68828 48.8094 10.4235 48.6895 10.7322C48.2098 11.9676 46.6148 11.9264 46.2181 13.0387C45.9185 13.879 45.9594 14.7452 45.9594 15.6238C45.9594 15.8951 45.7831 16.7712 46.3087 16.5373C47.311 16.0912 46.8412 14.1944 46.891 13.2979C46.9195 12.7841 47.5978 12.7107 47.939 12.5398C48.352 12.3331 48.9238 11.7271 49.1294 11.3153C49.4085 10.7565 49.4595 9.90449 49.0453 9.39757C48.5291 8.76573 47.6521 9.15273 47.1239 8.74968C46.6651 8.3996 45.7008 9.59167 45.3771 9.91588C45.2498 10.0433 45.1075 10.1552 44.9695 10.2657C44.9069 10.3159 44.7241 10.6804 44.6784 10.6804C44.5348 10.6804 44.8473 10.4416 44.9631 10.3564C45.3532 10.0692 45.7194 9.74128 46.0046 9.34573C46.3223 8.9053 46.8369 9.09954 47.3568 9.09954C47.6554 9.09954 48.3299 8.96986 48.5795 9.16433C48.9579 9.45901 49.0957 9.72415 48.5213 9.91588" stroke="#CD4631" stroke-width="0.698182" stroke-linecap="round" stroke-linejoin="round"/>
    <path d="M46.5415 18.6623C44.8433 19.045 47.297 19.7409 46.9814 18.753C46.8743 18.4178 46.3952 18.5387 46.548 18.8956C46.6152 19.0528 47.2276 19.319 46.6579 19.1288" stroke="#CD4631" stroke-width="0.698182" stroke-linecap="round" stroke-linejoin="round"/>
    <path d="M53.56 22.3533C54.3592 22.3533 55.3955 22.1668 56.1723 22.3937C56.6261 22.5262 56.8664 22.8145 57.1922 23.1203C57.578 23.4825 58.0394 23.9657 57.9823 24.5373C57.9127 25.2348 57.0142 25.5778 56.4545 25.7646C55.6555 26.0313 54.5927 25.9823 53.7616 25.8575C53.1064 25.759 51.9469 25.5524 51.6895 24.8078C51.4804 24.2028 51.9316 23.8793 52.4474 23.734C53.2452 23.5093 54.0801 23.333 54.8984 23.2092C55.2949 23.1491 56.1959 22.8838 56.5915 23.1526C56.7574 23.2653 56.9244 23.7575 56.9624 23.9479C57.0235 24.254 56.8611 24.4238 56.6036 24.5656C56.0394 24.8764 55.3525 25.0202 54.7331 24.7876C53.9118 24.4792 54.9577 23.7696 55.4144 23.738C55.9526 23.7008 56.1586 23.9158 56.3497 24.4203C56.4847 24.7768 56.4807 25.0004 56.0312 25.0379C55.4963 25.0826 54.9394 25.0363 54.4308 24.8643C53.639 24.5967 52.6115 24.1287 52.0685 23.4594C51.8155 23.1477 51.8185 22.7306 51.8185 22.3533C51.8185 21.7276 51.8238 21.7783 52.5361 21.772C53.7679 21.761 54.9966 21.6993 56.2287 21.6993C56.6145 21.6993 56.9722 21.6599 57.3172 21.8608C57.5547 21.999 57.5639 22.0583 57.551 22.3291C57.5046 23.3037 56.4252 23.5527 55.6644 23.8066" stroke="#4D4D4D" stroke-width="0.349091" stroke-linecap="round"/>
    <path d="M32.0084 13.4152C31.8953 12.8349 31.5319 12.3024 31.315 11.7439C31.1263 11.258 31.0651 10.6272 31.0651 10.1048C31.0651 9.10588 31.2053 8.02684 32.0971 7.38385C32.7802 6.8913 34.0355 6.65258 34.7093 7.32733C35.3644 7.9834 35.2649 9.01656 35.4551 9.85454C35.653 10.7268 35.2155 12.0838 34.2578 12.3535C33.9458 12.4414 33.1476 12.6391 32.9154 12.3171C32.5786 11.8502 32.4674 11.1491 32.3148 10.6054C32.1507 10.0215 31.5718 8.6232 32.5123 8.34064C33.6804 7.98969 34.1686 9.92151 34.2417 10.7104C34.2845 11.173 34.3201 11.5809 34.0079 11.9457C33.8777 12.0978 33.3099 12.5199 33.1331 12.2445C32.8877 11.8622 32.7087 10.028 33.2419 9.99987C33.3677 9.99324 33.7315 9.94519 33.8063 10.0725C33.9411 10.302 33.7771 10.6651 33.5644 10.7588C33.1464 10.943 33.0243 10.9165 33.0243 10.4722C33.0243 10.0676 33.1993 9.76127 33.6612 9.9595C33.8887 10.0571 33.9149 10.504 33.9514 10.7023C34.0666 11.3272 34.0401 11.9673 34.0401 12.5997C34.0401 13.5763 33.3104 14.1118 32.6614 14.7959" stroke="#4D4D4D" stroke-width="0.349091" stroke-linecap="round"/>
    <path d="M32.444 25.5507C31.5858 25.5507 30.8317 25.6211 30.1221 25.0986C29.637 24.7413 29.4691 24.4009 29.4691 23.7906C29.4691 23.3572 29.5181 23.0086 29.8319 22.6764C30.1235 22.3676 30.3894 22.3593 30.7994 22.2646C30.9506 22.2296 32.0208 21.935 32.1377 22.2081C32.3085 22.6074 32.0816 23.2887 31.8635 23.6291C31.6217 24.0066 31.4082 24.378 30.9928 24.5899C30.9005 24.637 30.2071 24.9025 30.1947 24.6787C30.1715 24.2597 30.2317 23.9472 30.4849 23.6049C30.6371 23.3992 31.2116 23.5049 31.4282 23.5161C32.213 23.5564 31.8627 25.5102 31.009 24.6222C30.8256 24.4316 30.7966 24.0508 30.9283 23.831C31.4083 23.0298 32.2615 22.6835 33.097 22.4261" stroke="#4D4D4D" stroke-width="0.349091" stroke-linecap="round"/>
    <path d="M58.3487 15.2319C58.733 14.9973 59.0743 14.7011 59.0743 14.2146C59.0743 13.9034 59.1517 13.5943 58.8889 13.3789C58.6959 13.2208 57.2147 12.6305 57.1878 13.1973C57.169 13.591 57.1878 13.9899 57.1878 14.3842C57.1878 14.8131 57.6432 14.7285 57.9698 14.7233C58.576 14.7135 58.6504 14.2589 58.4172 13.714C58.2918 13.4208 57.8675 13.2146 57.7037 13.6656C57.6183 13.9009 58.7925 13.7059 57.9859 13.7059" stroke="#4D4D4D" stroke-width="0.349091" stroke-linecap="round"/>
    <path d="M60.5917 20.7757C60.7518 20.7757 61.2023 20.7207 61.2562 20.9635C61.3039 21.1784 61.2261 21.3041 61.0709 21.4249C60.7307 21.69 59.8365 21.5611 60.036 20.9797C60.178 20.5661 60.597 20.2913 61.0316 20.2748C61.1362 20.2709 61.266 20.2384 61.321 20.3374C61.3742 20.4334 61.3462 20.6232 61.3002 20.7154C61.1678 20.9806 60.9198 21.2083 60.6426 21.2441C60.2545 21.2942 59.3414 21.4732 59.3414 20.9009" stroke="#4D4D4D" stroke-width="0.349091" stroke-linecap="round"/>
  </g>
  <defs>
    <clipPath id="clip0_301_11145">
      <rect width="64" height="64" fill="white"/>
    </clipPath>
  </defs>
</svg>