<svg xmlns="http://www.w3.org/2000/svg" width="64" height="64" viewBox="0 0 64 64" fill="none">
  <path d="M16.9011 39.5853C17.2136 36.9975 18.2749 35.5486 20.275 34.0633C23.1367 32.0517 26.7114 33.1896 26.7114 33.1896V26.4393C27.5805 26.4171 28.4498 26.4686 29.3094 26.5932V35.2803C29.3094 35.2803 25.7358 34.1424 22.8741 36.155C20.8751 37.6392 19.8116 39.0891 19.5001 41.6769C19.4904 43.0821 19.7541 44.919 20.9684 46.5072C20.6682 46.3533 20.3622 46.1779 20.0504 45.9809C17.3753 44.1847 16.888 41.4897 16.9011 39.5853ZM44.0695 13.958C42.1009 11.8008 41.3564 9.62278 41.0873 8.09277H43.5637C43.5637 8.09277 43.07 12.1045 46.6686 16.0496L46.7185 16.1027C45.7486 15.4926 44.8591 14.7725 44.0695 13.958ZM55.9992 20.0738V28.5861C55.9992 28.5861 52.8391 28.4623 50.5005 27.8674C47.235 27.0353 45.1362 25.7591 45.1362 25.7591C45.1362 25.7591 43.6864 24.849 43.5692 24.7855V42.3634C43.5692 43.3422 43.3011 45.7864 42.484 47.825C41.4172 50.4919 39.7709 52.2424 39.4681 52.6002C39.4681 52.6002 37.4659 54.9665 33.9335 56.5599C30.7495 57.9973 27.954 57.9609 27.1184 57.9973C27.1184 57.9973 22.2859 58.1887 17.9374 55.3627C16.9971 54.7399 16.1194 54.0344 15.3156 53.2555L15.3373 53.2711C19.6868 56.097 24.5182 55.9057 24.5182 55.9057C25.3549 55.8693 28.1504 55.9057 31.3334 54.4682C34.8625 52.8748 36.868 50.5085 36.868 50.5085C37.1675 50.1507 38.8213 48.4002 39.8838 45.7323C40.6988 43.6948 40.969 41.2495 40.969 40.2707V22.6949C41.0862 22.7594 42.535 23.6695 42.535 23.6695C42.535 23.6695 44.6349 24.9467 47.9003 25.7778C50.24 26.3727 53.3991 26.4965 53.3991 26.4965V19.8263C54.4799 20.0686 55.4013 20.1341 55.9992 20.0738Z" fill="black"/>
  <path d="M53.4014 19.8263V26.4944C53.4014 26.4944 50.2423 26.3707 47.9026 25.7757C44.6371 24.9436 42.5372 23.6674 42.5372 23.6674C42.5372 23.6674 41.0885 22.7573 40.9713 22.6928V40.2728C40.9713 41.2515 40.7032 43.6968 39.8861 45.7344C38.8193 48.4023 37.173 50.1528 36.8702 50.5106C36.8702 50.5106 34.8669 52.8769 31.3356 54.4703C28.1527 55.9078 25.3572 55.8714 24.5205 55.9078C24.5205 55.9078 19.6891 56.0991 15.3395 53.2732L15.3178 53.2576C14.8586 52.8129 14.4264 52.3434 14.0232 51.8513C12.6352 50.1591 11.7844 48.1579 11.5706 47.5869C11.5702 47.5844 11.5702 47.582 11.5706 47.5796C11.2266 46.5873 10.5038 44.2044 10.6026 41.8964C10.7773 37.8244 12.2098 35.325 12.5885 34.6988C13.5916 32.9914 14.8962 31.4636 16.4443 30.1837C17.8104 29.0792 19.3588 28.2005 21.0261 27.5834C22.8284 26.859 24.7584 26.4706 26.7126 26.4393V33.1896C26.7126 33.1896 23.1379 32.0559 20.2773 34.0633C18.2772 35.5486 17.2159 36.9975 16.9033 39.5853C16.8903 41.4897 17.3776 44.1847 20.0505 45.982C20.3623 46.1796 20.6683 46.355 20.9686 46.5083C21.4355 47.1153 22.0039 47.6442 22.6506 48.0736C25.2617 49.7264 27.4495 49.8418 30.2472 48.7684C32.1127 48.0508 33.5169 46.4334 34.1681 44.6413C34.5772 43.5221 34.5718 42.3957 34.5718 41.2307V8.09277H41.0831C41.3522 9.62278 42.0967 11.8008 44.0652 13.958C44.8549 14.7725 45.7444 15.4926 46.7142 16.1027C47.0007 16.3991 48.4658 17.8646 50.3465 18.7643C51.3189 19.2294 52.344 19.5857 53.4014 19.8263Z" fill="black"/>
  <path d="M8.97888 45.5139V45.5191L9.14045 45.957C9.12189 45.906 9.06185 45.7511 8.97888 45.5139Z" fill="black"/>
  <path d="M21.0256 27.5833C19.3584 28.2003 17.81 29.0791 16.4438 30.1836C14.8953 31.4664 13.591 32.9973 12.5892 34.7081C12.2104 35.3321 10.7779 37.8336 10.6032 41.9056C10.5045 44.2136 11.2272 46.5965 11.5712 47.5888C11.5709 47.5912 11.5709 47.5937 11.5712 47.5961C11.7883 48.1619 12.6358 50.1631 14.0238 51.8605C14.427 52.3526 14.8593 52.8221 15.3185 53.2668C13.8471 52.2915 12.5349 51.1123 11.4247 49.7678C10.0487 48.0901 9.20003 46.1098 8.97864 45.5252C8.97838 45.5211 8.97838 45.5169 8.97864 45.5127V45.5055C8.63354 44.5142 7.90862 42.1303 8.00955 39.8192C8.18427 35.7471 9.61675 33.2477 9.99549 32.6216C10.997 30.9107 12.3013 29.3797 13.8502 28.0971C15.216 26.9923 16.7645 26.1134 18.432 25.4968C19.472 25.0832 20.5555 24.7781 21.6637 24.5867C23.3338 24.3073 25.0396 24.2831 26.7176 24.515V26.4392C24.7616 26.4698 22.8297 26.8582 21.0256 27.5833Z" fill="black"/>
  <path d="M41.0877 8.09271H34.5764V41.2317C34.5764 42.3966 34.5764 43.52 34.1727 44.6422C33.5151 46.4333 32.1162 48.0507 30.2518 48.7684C27.453 49.8459 25.2652 49.7263 22.6553 48.0736C22.0074 47.646 21.4376 47.1189 20.9689 46.5134C23.1925 47.6502 25.1828 47.6305 27.6484 46.6819C29.5117 45.9642 30.9127 44.3468 31.5682 42.5547C31.9784 41.4356 31.973 40.3091 31.973 39.1452V6H40.964C40.964 6 40.8631 6.82377 41.0877 8.09271ZM53.4006 17.9821V19.8262C52.345 19.5853 51.3218 19.2289 50.3511 18.7643C48.4704 17.8646 47.0054 16.399 46.7189 16.1026C47.0513 16.3118 47.3963 16.5021 47.752 16.6726C50.0386 17.7668 52.2904 18.0934 53.4006 17.9821Z" fill="black"/>
</svg>