<svg xmlns="http://www.w3.org/2000/svg" width="64" height="64" viewBox="0 0 64 64" fill="none">
  <path d="M23.5775 56C17.1075 56 11.0763 54.1182 6 50.8712C10.31 51.1501 17.9161 50.4822 22.6472 45.9696C15.5302 45.643 12.3205 40.1846 11.9019 37.8519C12.5066 38.0852 15.3906 38.3651 17.0187 37.712C8.8318 35.6592 7.57586 28.4746 7.85495 26.2819C9.38999 27.355 11.9949 27.7282 13.0183 27.6349C5.38959 22.1765 8.13405 13.9655 9.48303 12.1927C14.9576 19.7773 23.1624 24.0371 33.3128 24.2741C33.1214 23.4347 33.0203 22.5608 33.0203 21.6633C33.0203 15.2218 38.2268 10 44.6494 10C48.0051 10 51.0288 11.4255 53.1514 13.7057C55.3938 13.1802 58.7686 11.9501 60.4184 10.8864C59.5868 13.8722 56.9979 16.363 55.4318 17.2862C55.4191 17.2546 55.4448 17.3176 55.4318 17.2862C56.8074 17.0781 60.5296 16.3627 62 15.3651C61.2728 17.0425 58.528 19.8315 56.2754 21.3928C56.6945 39.8761 42.553 56 23.5775 56Z" fill="black"/>
</svg>