<svg xmlns="http://www.w3.org/2000/svg" width="183" height="132" viewBox="0 0 183 132" fill="none">
  <circle cx="130.68" cy="76.1349" r="1.264" transform="rotate(40 130.68 76.1349)" fill="#81ADC8"/>
  <circle cx="133.262" cy="78.301" r="1.68533" transform="rotate(40 133.262 78.301)" fill="#81ADC8"/>
  <path d="M128.191 78.4457L128.797 78.5422C129.171 78.6015 129.481 78.8618 129.604 79.2192V79.2192C129.728 79.5766 130.038 79.8369 130.411 79.8963V79.8963C130.785 79.9557 131.095 80.216 131.218 80.5734L131.419 81.154" stroke="black" stroke-width="1.05333" stroke-linecap="round" stroke-linejoin="round"/>
  <path d="M29.4891 -18.8535C34.8379 -17.7535 39.1254 -15.664 42.4593 -11.9387C47.4153 -6.51552 49.2227 -0.000348042 47.5229 7.5436C46.8699 10.409 45.2804 12.7172 43.113 14.5312C39.3737 17.7153 35.038 18.8332 30.2718 18.6203C29.8284 18.6206 29.47 18.5574 29.0533 18.4055C24.542 16.7472 20.1158 15.0255 16.4013 11.7821C11.6293 7.41106 9.73266 1.82139 10.9847 -4.86025C12.4828 -12.5182 19.4194 -18.7465 26.5685 -19.0547C27.7555 -19.0807 28.9023 -18.8785 29.4891 -18.8535ZM28.5288 -10.4732C27.4851 -10.4219 26.3966 -10.5354 25.3977 -10.3194C20.6902 -9.18852 17.5968 -3.38061 19.1975 1.37252C19.7177 3.03297 20.735 4.38888 22.0343 5.40236C24.5031 7.32797 27.2808 8.759 30.2375 9.59409C31.6442 9.99899 33.2747 9.97275 34.7438 9.6043C38.2823 8.81638 40.1136 6.394 40.0139 2.76834C39.9322 -0.540404 38.9099 -3.54438 36.6649 -5.90114C34.4782 -8.16919 31.7005 -9.60021 28.5288 -10.4732Z" fill="#CD4631"/>
  <path d="M40.0225 -35.8214C42.9075 -34.999 45.9044 -34.3921 48.7626 -33.4175C55.3705 -31.0758 60.2322 -26.3752 63.37 -19.8607C67.5027 -11.4452 68.9391 -2.40707 67.5491 7.15241C67.0486 10.8291 65.7149 14.202 63.7628 17.309C61.9227 20.2005 59.8228 22.8892 57.2747 25.1852C48.7663 32.7835 39.2088 37.53 27.9608 37.1939C20.3905 36.9571 13.1602 35.2116 6.69059 31.2471C2.23712 28.4225 -1.63879 24.8369 -4.8788 20.5791C-5.95434 19.1345 -6.74779 17.3475 -7.39788 15.5857C-9.11511 10.6552 -9.74841 5.44512 -10.2383 0.260362C-10.4001 -1.33689 -10.0199 -3.0739 -9.73824 -4.6714C-7.94084 -14.865 -2.97135 -22.9305 5.41676 -28.5891C14.9693 -34.9837 25.2935 -37.7911 36.5418 -36.1999C37.6886 -35.9977 38.8354 -35.7954 39.9822 -35.5932C39.9956 -35.6693 40.0091 -35.7454 40.0225 -35.8214ZM38.3768 -27.3267C29.0411 -29.2866 20.1768 -27.6337 11.7795 -22.761C8.31304 -20.7054 5.20963 -18.1936 2.81876 -14.6934C-2.66591 -6.64025 -3.36637 1.94269 -0.227835 10.9672C0.2609 12.3868 1.14822 13.6414 2.13407 14.7565C3.72937 16.6065 5.42315 18.317 7.20202 19.9641C11.9606 24.4112 17.3459 27.4001 23.8503 28.2332C36.4289 29.8237 46.645 25.1149 55.0856 15.3868C56.102 14.2326 56.9169 12.9644 57.6018 11.5949C58.3851 10.0859 59.0521 8.39943 59.4054 6.81457C60.8675 -1.47721 59.5883 -9.31111 55.8277 -16.4844C53.3849 -21.0723 49.7287 -24.227 44.8053 -25.6441C42.7087 -26.3276 40.5002 -26.7954 38.3768 -27.3267Z" fill="#81ADC8"/>
  <path d="M13.3628 52.8956C7.41374 51.8466 2.61572 50.1378 -1.75266 47.2498C-4.59327 45.337 -7.05326 42.9424 -9.04756 40.0023C-11.741 35.9977 -14.5778 31.9679 -17.3563 28.0267C-17.5893 27.6719 -17.9075 27.3805 -18.1405 27.0257C-19.0861 25.6824 -20.2601 24.3773 -20.9505 22.8437C-24.5321 15.0744 -26.8596 6.89881 -26.2488 -2.0137C-25.7361 -9.53164 -23.3419 -16.4041 -19.4961 -22.7068C-16.4652 -27.7414 -12.9279 -32.2945 -8.63786 -36.0873C-4.26273 -39.9436 0.466558 -42.8747 5.83675 -44.8299C12.2058 -47.0012 18.6197 -49.0077 25.213 -50.3551C34.6326 -52.2238 44.0484 -51.9754 53.3708 -49.9395C56.7843 -49.1807 59.9338 -47.7625 62.6357 -45.4821C65.8572 -42.7963 69.0654 -40.0343 71.9332 -37.0187C78.0001 -30.7722 80.9412 -22.7236 82.2162 -14.0277C84.021 -1.63023 82.3317 10.4649 77.1304 21.9407C76.0427 24.3373 74.7399 26.696 73.2624 28.7886C66.3941 38.4018 57.8097 45.5945 46.8094 49.3023C35.4957 53.1117 24.1362 54.2462 13.3628 52.8956ZM14.7083 44.4264C24.6351 45.5493 34.9508 44.4661 45.0956 40.9996C53.3592 38.1427 59.8615 32.7006 65.3734 25.7504C66.9943 23.6831 68.5118 21.3623 69.6129 18.8896C74.313 8.58033 75.8593 -2.285 73.9835 -13.44C72.8615 -20.0696 70.6153 -26.1916 65.9238 -31.0191C63.419 -33.5785 60.6589 -35.9477 57.8988 -38.3168C55.7749 -40.1032 53.3019 -41.1667 50.6634 -41.7104C42.4476 -43.3159 34.1337 -43.5269 25.8429 -41.7729C20.0066 -40.5274 14.2198 -38.724 8.54944 -36.7433C4.13324 -35.1689 0.241398 -32.7961 -3.34112 -29.6628C-6.9236 -26.5295 -9.79818 -22.8008 -12.368 -18.7047C-16.2721 -12.4906 -18.411 -5.8085 -18.2384 1.59497C-18.1567 4.90372 -17.8197 8.02216 -15.7986 10.8101C-14.853 12.1534 -14.2612 13.8264 -13.6425 15.3474C-13.0687 16.7035 -12.5666 18.0471 -12.1495 19.454C-11.4232 21.6214 -10.3564 23.5351 -9.04787 25.3346C-6.96847 28.2112 -4.83082 31.1766 -2.92161 34.1801C-0.882426 37.2849 1.74774 39.5527 4.857 41.1991C7.8229 42.8201 10.9095 43.7566 14.7083 44.4264Z" fill="#F7EDE8"/>
  <path d="M78.6355 59.2712C79.079 59.9911 79.634 61.3725 78.3063 61.1384" stroke="#F7EDE8" stroke-width="1.05333" stroke-linecap="round" stroke-linejoin="round"/>
  <path d="M81.3455 65.7391C80.6012 64.467 79.6763 62.0221 81.9308 62.4196" stroke="#F7EDE8" stroke-width="1.05333" stroke-linecap="round" stroke-linejoin="round"/>
  <path d="M76.7417 62.7327C77.6633 62.974 79.2036 63.6688 77.9914 64.5175" stroke="#F7EDE8" stroke-width="1.05333" stroke-linecap="round" stroke-linejoin="round"/>
  <path d="M83.9287 59.5897C84.6806 59.6883 85.9763 59.5625 87.2418 60.8446C88.4779 62.097 84.3799 60.0598 84.2594 58.5376C84.1184 56.7583 90.9345 60.6865 89.4744 60.6516C88.6576 60.632 84.6533 57.56 85.4256 56.9448C86.4079 56.1622 91.3041 59.1939 91.1673 59.7341C90.9261 60.6869 85.3668 56.4371 85.9682 55.5169C86.6854 54.4196 90.5377 56.8882 90.6685 57.8165C90.7731 58.5592 87.1165 55.3611 88.1832 53.6817" stroke="#81ADC8" stroke-width="0.421333" stroke-linecap="round"/>
  <path d="M149.412 92.0739C149.356 91.8724 149.624 91.7463 149.743 91.918L150.976 93.6907C151.057 93.8073 151.234 93.7934 151.296 93.6656L152.387 91.4109C152.474 91.2303 152.746 91.2974 152.739 91.498L152.672 93.5102C152.668 93.6351 152.786 93.7283 152.906 93.6957L155.084 93.1049C155.261 93.0572 155.393 93.2657 155.274 93.4046L153.721 95.2265C153.642 95.3191 153.672 95.4613 153.781 95.5142L155.285 96.2393C155.467 96.3271 155.398 96.6016 155.196 96.592L153.248 96.4991C153.121 96.4931 153.026 96.6125 153.06 96.7344L153.556 98.5118C153.612 98.7118 153.347 98.8386 153.226 98.6699L151.765 96.6319C151.679 96.5119 151.494 96.5354 151.441 96.6731L150.646 98.732C150.569 98.9317 150.271 98.8639 150.288 98.6505L150.504 95.9275C150.516 95.7753 150.349 95.6744 150.22 95.7556L148.707 96.7054C148.52 96.8232 148.32 96.5726 148.478 96.4164L149.639 95.2633C149.734 95.1685 149.7 95.0068 149.575 94.9584L147.92 94.3197C147.723 94.2438 147.785 93.951 147.996 93.9611L149.708 94.0427C149.835 94.0487 149.93 93.9292 149.896 93.8073L149.412 92.0739Z" fill="#CD4631"/>
  <path d="M130.039 95.5956L158.143 97.2492" stroke="black" stroke-width="0.632" stroke-linecap="round"/>
  <path d="M124.74 93.9728L152.844 95.6265" stroke="#CD4631" stroke-width="0.632" stroke-linecap="round"/>
  <path d="M155.38 96.582C155.223 96.4463 155.374 96.1937 155.568 96.269L156.547 96.6486C156.766 96.7336 156.996 96.5526 156.965 96.3198L156.771 94.8788C156.745 94.6804 157.008 94.5866 157.113 94.7571L157.667 95.6599C157.777 95.8381 158.028 95.8582 158.164 95.6997L159.087 94.628C159.206 94.4893 159.433 94.5893 159.411 94.7709L159.229 96.2897C159.204 96.4922 159.379 96.6622 159.581 96.6318L160.339 96.5175C160.538 96.4874 160.635 96.7528 160.463 96.8585L159.602 97.3877C159.424 97.4972 159.404 97.7483 159.562 97.8847L160.206 98.4392C160.363 98.574 160.215 98.8251 160.021 98.7532L158.762 98.2858C158.533 98.2008 158.301 98.4026 158.353 98.6411L158.565 99.6108C158.611 99.8194 158.325 99.9268 158.222 99.74L157.552 98.5286C157.429 98.3057 157.104 98.3196 157 98.5523L156.835 98.9234C156.744 99.1256 156.44 99.0279 156.484 98.8109L156.548 98.4969C156.593 98.2762 156.394 98.0831 156.175 98.1347L155.487 98.2965C155.282 98.3447 155.168 98.0685 155.347 97.9584L155.94 97.5946C156.118 97.4851 156.138 97.234 155.979 97.0976L155.38 96.582Z" fill="black" stroke="black" stroke-width="0.123479"/>
  <path d="M38.5033 69.1867C39.1197 68.8529 39.8395 68.6539 40.4875 68.8056C40.9299 68.9092 40.9714 69.9523 41.0577 70.2994C41.1775 70.7816 40.8544 71.0285 40.4354 71.2253C40.3103 71.3673 40.1871 71.5343 40.0874 71.6823C40.0339 71.7617 39.9657 71.8163 39.8908 71.8585C39.9465 72.1914 40.1367 72.6185 40.1029 72.8103C40.0323 73.2107 39.9499 73.3201 39.5941 72.9944C39.4718 72.8825 39.2913 72.7808 39.1799 72.6425C39.1386 72.5912 39.1068 72.5349 39.091 72.4711C38.9156 71.7658 39.6715 71.5581 40.302 71.2852C40.4258 71.2016 40.5291 71.1 40.6113 70.9872C40.6023 70.8402 40.5193 70.4996 40.5244 70.4197C40.5616 69.8383 39.7506 69.8545 39.3504 69.784C38.7806 69.6835 38.4756 70.1321 38.0975 70.474C37.7844 70.7572 37.2341 70.846 37.3421 70.2336C37.4606 69.5616 37.9389 69.2782 38.5033 69.1867Z" fill="#CD4631"/>
  <path d="M37.6324 69.8026C38.3322 69.1647 39.4942 68.573 40.4875 68.8056C40.9299 68.9092 40.9714 69.9523 41.0577 70.2994C41.3637 71.5304 38.782 71.2285 39.091 72.4711C39.1496 72.7069 39.4265 72.841 39.5941 72.9944C39.9499 73.3201 40.0323 73.2107 40.1029 72.8103C40.1575 72.5004 39.627 71.5758 40.0252 71.4272C41.106 71.0239 41.164 69.4607 39.9281 69.2428C38.9783 69.0753 37.5588 69.0048 37.3421 70.2336C37.2341 70.846 37.7844 70.7572 38.0975 70.474C38.4756 70.1321 38.7806 69.6835 39.3504 69.784C39.7506 69.8545 40.5616 69.8383 40.5244 70.4197C40.5181 70.5183 40.6461 71.0141 40.6033 71.0528C40.426 71.2131 40.2319 71.4678 40.0874 71.6823C39.8452 72.0419 39.3001 71.8927 39.2132 72.3855C39.1552 72.7146 39.163 72.7746 39.3112 73.0458C39.3602 73.1355 39.6904 73.4102 39.6138 73.1527" stroke="#CD4631" stroke-width="0.633256" stroke-linecap="round" stroke-linejoin="round"/>
  <path d="M40.0848 74.7361C39.9539 75.6045 40.4706 75.1498 40.1976 74.8393C40.0167 74.6338 39.8766 75.0845 40.1011 75.251C40.3534 75.4382 40.4125 74.7293 40.3117 74.7999C40.0494 74.9835 40.4166 75.6689 39.9565 75.4637" stroke="#CD4631" stroke-width="0.633256" stroke-linecap="round" stroke-linejoin="round"/>
  <path d="M44.735 67.3107C44.7811 67.3188 44.8272 67.3259 44.8733 67.332C45.4678 67.0693 46.2145 66.9838 46.6143 66.325C46.7224 66.1469 46.9257 65.7855 46.8959 65.51C46.8852 65.4107 46.8441 65.3226 46.7574 65.2582C46.4825 65.0543 45.7655 64.7374 45.4479 64.9598C44.8543 65.3754 44.2799 65.7053 43.5284 65.7583C42.8253 65.8079 42.82 65.0131 43.1802 64.605C43.782 63.9231 44.2989 63.4675 45.2178 63.6471C45.9188 63.7842 47.2015 64.0382 47.5553 64.7235C47.9739 65.5344 47.7 66.4982 47.0608 67.1129C46.7555 67.4065 46.3334 67.5559 45.9137 67.6569C45.8429 67.6906 45.7751 67.7177 45.7126 67.7363C45.545 67.7862 45.3004 67.7982 45.0936 67.8641C44.7237 68.0727 44.7618 68.5314 44.6752 69.0225C44.6322 69.2664 44.5674 69.5764 44.4725 69.8873C44.422 70.0967 44.3543 70.2912 44.259 70.452C44.1379 70.7087 43.9888 70.9339 43.8057 71.0812C43.6567 71.2011 43.5929 71.059 43.5679 70.8607C43.3477 70.7659 43.5501 70.2324 43.5839 70.0403C43.6899 69.4392 43.7719 68.841 44.0012 68.2822C44.0967 67.8434 44.2904 67.2323 44.735 67.3107Z" fill="#CD4631"/>
  <path d="M43.8944 64.8322C43.8955 63.9824 44.8226 64.052 45.5043 64.0016C46.0454 63.9616 46.558 63.9394 47.0032 64.3109C47.2929 64.5527 47.6625 65.1065 47.6228 65.4896C47.4751 66.9152 46.091 67.5498 44.735 67.3107C44.1671 67.2106 44.0086 68.2352 43.9411 68.5891C43.8321 69.1608 43.5995 69.6911 43.5644 70.2788C43.5547 70.4405 43.4947 71.3314 43.8057 71.0812C44.3207 70.6669 44.5671 69.636 44.6752 69.0225C44.7782 68.4384 44.7048 67.9001 45.3513 67.774C45.9232 67.6624 46.6161 67.5406 47.0608 67.1129C47.7 66.4982 47.9739 65.5344 47.5553 64.7235C47.2015 64.0382 45.9188 63.7842 45.2178 63.6471C44.2989 63.4675 43.782 63.9231 43.1802 64.605C42.82 65.0131 42.8253 65.8079 43.5284 65.7583C44.2799 65.7053 44.8543 65.3754 45.4479 64.9598C45.7655 64.7374 46.4825 65.0543 46.7574 65.2582C47.0846 65.501 46.7614 66.0826 46.6143 66.325C46.026 67.2945 44.6863 67.0225 44.1864 67.9006C43.8087 68.5641 43.7145 69.3 43.5839 70.0403C43.5436 70.2689 43.2647 70.9809 43.743 70.8619C44.655 70.6352 44.5404 68.9671 44.7156 68.2191C44.816 67.7905 45.3992 67.8296 45.7126 67.7363C46.0917 67.6236 46.6643 67.1981 46.8989 66.8817C47.2174 66.4524 47.387 65.7421 47.1129 65.2534C46.7712 64.6442 45.9737 64.8398 45.5878 64.4216C45.2527 64.0584 44.262 64.9193 43.9407 65.1443C43.8143 65.2328 43.6776 65.3058 43.5448 65.3785C43.4844 65.4114 43.2761 65.6913 43.2375 65.6845C43.1163 65.6631 43.4155 65.5085 43.5258 65.4539C43.8977 65.2699 44.2554 65.0481 44.5549 64.7573C44.8883 64.4335 45.2937 64.6737 45.7324 64.751C45.9843 64.7955 46.5727 64.7865 46.7545 64.9875C47.0299 65.2921 47.1068 65.536 46.5937 65.6121" stroke="#CD4631" stroke-width="0.598658" stroke-linecap="round" stroke-linejoin="round"/>
  <path d="M43.8064 73.1756C43.8157 73.1723 43.8248 73.1687 43.8336 73.1647C43.785 73.1096 43.614 72.9673 43.5945 72.8841C43.5186 72.5607 43.9408 72.5301 43.9814 72.8285C44.0064 73.0122 43.9402 73.116 43.8336 73.1647C43.8545 73.1884 43.8527 73.1959 43.8064 73.1756Z" fill="#CD4631"/>
  <path d="M43.6236 72.6866C42.1338 72.7564 44.101 73.7078 43.9814 72.8285C43.9408 72.5301 43.5186 72.5607 43.5945 72.8841C43.6279 73.0266 44.1051 73.342 43.6526 73.097" stroke="#CD4631" stroke-width="0.598658" stroke-linecap="round" stroke-linejoin="round"/>
  <path d="M71.7682 101.598C71.0338 100.637 69.7291 100.915 68.9174 101.649C68.127 102.363 67.6245 104.171 68.3342 105.082C68.5316 105.335 68.7048 105.615 68.9385 105.836C69.0219 105.915 68.721 105.914 68.6073 105.929C68.2555 105.977 68.078 106.354 68.17 106.681C68.2182 106.853 68.3574 106.973 68.5266 107.013C68.6434 107.041 68.6685 107.083 68.5337 107.094C68.2177 107.122 67.9929 107.136 67.7733 107.398C67.4491 107.784 67.5893 108.123 67.9647 108.382C68.3442 108.643 68.2722 108.755 67.9134 108.965C67.6291 109.132 67.519 109.475 67.4175 109.784C67.2419 110.318 66.9914 111.123 67.4616 111.559C68.0503 112.105 68.9412 112.136 69.6833 112.008C69.9299 111.965 70.2229 111.948 70.4174 111.771C70.4698 111.723 70.6128 111.552 70.4654 111.518C70.2027 111.459 70.1014 111.929 70.0856 112.093C69.9743 113.251 71.7026 113.668 72.5404 113.534C73.0847 113.447 73.5629 113.191 73.9937 112.857C74.3326 112.594 74.8086 112.303 75.0356 111.926C75.1452 111.744 75.1033 111.957 75.1642 112.125C75.31 112.527 75.7455 112.456 76.0743 112.362C76.5185 112.234 76.9187 111.955 77.1906 111.579C77.2305 111.524 77.4329 111.16 77.4655 111.21C77.8644 111.827 78.1181 110.969 78.4681 110.766C78.5267 110.731 78.6307 111.128 78.6635 111.193C78.9113 111.684 79.1705 112.125 79.7411 112.275C80.9625 112.596 82.2516 112.094 83.1099 111.222C83.4713 110.856 83.6746 110.345 83.2277 109.928C83.1196 109.827 83.463 109.947 83.5274 109.943C83.8819 109.921 84.3955 109.883 84.6568 109.61C84.9546 109.298 85.1164 109.021 85.0054 108.579C84.9278 108.27 84.7516 108.084 84.4603 107.965C84.3321 107.913 84.073 107.9 84.263 107.784C84.4536 107.666 84.5452 107.366 84.5649 107.155C84.5959 106.82 84.3685 106.589 84.0722 106.472C83.9386 106.419 83.5252 106.467 83.5944 106.461C83.8244 106.441 83.9617 105.543 83.9466 105.371C83.8798 104.607 83.1215 104.003 82.3443 104.043C82.2155 104.05 82.0828 104.124 82.1819 103.993C82.2956 103.842 82.3047 103.569 82.3517 103.393C82.6166 102.403 82.2185 101.559 81.4504 100.915C80.8181 100.384 79.838 100.085 79.0652 100.436C79.0152 100.459 78.6881 100.829 78.7858 100.82C78.9347 100.807 78.8915 100.45 78.8722 100.371C78.7819 100.002 78.352 99.6914 78.0376 99.5254C77.5744 99.2809 76.8989 99.3549 76.4074 99.4838C75.9743 99.5973 75.6456 99.8745 75.4183 100.249C75.2978 100.447 75.3958 100.616 75.2512 100.48C75.0168 100.26 74.9315 100.117 74.5606 100.143C74.1234 100.173 73.7236 100.282 73.3734 100.551C73.1941 100.688 73.0315 100.989 73.0519 101.223C73.0522 101.226 73.0058 101.001 72.9722 100.914C72.7912 100.441 72.1665 100.449 71.8309 100.776C71.6896 100.914 71.6071 101.126 71.589 101.321C71.5795 101.424 71.5181 101.749 71.4932 101.464" stroke="#81ADC8" stroke-width="0.632" stroke-linecap="round" stroke-linejoin="round"/>
  <path d="M78.0583 114.987C77.7402 114.735 77.5347 114.757 77.2219 115.021C76.9296 115.268 76.8171 115.745 77.0548 116.066C77.4235 116.564 78.3137 116.46 78.6268 115.969C78.7787 115.732 78.7269 115.92 78.8161 115.999C79.0381 116.196 79.1561 116.216 79.3978 116.007C79.6885 115.756 79.9639 114.701 79.2706 114.81C79.1935 114.822 78.9405 114.981 79.057 114.963C79.2112 114.938 79.2167 114.75 79.1842 114.63C79.0977 114.309 78.6626 114.135 78.3788 114.239C78.1667 114.317 78.102 114.57 77.9302 114.659C77.7642 114.745 77.0977 115.262 77.5971 115.226" stroke="#81ADC8" stroke-width="0.632" stroke-linecap="round" stroke-linejoin="round"/>
  <path d="M80.5945 117.265C80.3528 117.172 80.0707 117.047 79.9476 117.375C79.856 117.62 80.0583 117.983 80.3337 117.988C80.4298 117.99 80.7629 117.9 80.813 117.972C80.9389 118.152 81.0621 117.992 81.1821 117.859C81.3221 117.705 81.2551 117.117 81.0361 117.026C80.897 116.968 80.254 117.275 80.3179 117.322" stroke="#81ADC8" stroke-width="0.632" stroke-linecap="round" stroke-linejoin="round"/>
  <path d="M74.6894 104.502C74.0595 102.772 67.8402 106.472 76.3689 109.117" stroke="#CD4631" stroke-width="0.316" stroke-linecap="round"/>
  <path d="M76.3685 109.117C81.2023 101.609 74.0592 102.772 74.689 104.502L75.7178 104.982L75.2381 106.011L76.0481 106.388L75.6704 107.198L76.0754 107.387L75.8866 107.792L76.3685 109.117ZM76.3685 109.117C76.3685 109.117 76.3685 109.117 76.3685 109.117Z" stroke="#CD4631" stroke-width="0.316" stroke-linecap="round" stroke-linejoin="round"/>
  <path d="M72.7693 105.526C72.855 105.394 72.991 105.309 73.0887 105.188C73.2059 105.042 73.362 104.948 73.5032 104.832C73.5423 104.8 73.7618 104.63 73.6649 104.775C73.5092 105.01 73.346 105.238 73.1932 105.475C73.1126 105.6 73.0354 105.746 72.9204 105.842C72.8481 105.903 72.9749 105.761 72.9872 105.75C73.1307 105.621 73.3332 105.506 73.5037 105.416C73.6875 105.319 73.8592 105.187 74.0047 105.039C74.0246 105.019 74.1468 104.912 74.0675 104.996C73.8678 105.208 73.6636 105.42 73.4832 105.649C73.3977 105.758 73.3033 105.861 73.2056 105.959C73.1554 106.009 73.1033 106.098 73.0358 106.127C73.031 106.129 72.9565 106.188 72.983 106.159C73.1142 106.017 73.3436 105.924 73.5049 105.82C73.7027 105.692 73.9208 105.578 74.0963 105.419C74.2104 105.316 74.3298 105.22 74.4534 105.128C74.6312 104.997 74.171 105.469 74.028 105.637C73.8545 105.842 73.6813 106.046 73.5103 106.252C73.4287 106.35 73.3336 106.437 73.2538 106.533C73.2156 106.579 73.2055 106.6 73.2671 106.549C73.4757 106.379 73.6692 106.192 73.8793 106.024C73.9828 105.941 74.0867 105.858 74.2026 105.795C74.2397 105.774 74.3464 105.687 74.2639 105.798C74.0646 106.067 73.8116 106.32 73.5796 106.563C73.5261 106.619 73.5173 106.642 73.5839 106.565C73.6855 106.447 73.8395 106.335 73.9741 106.255C74.0966 106.183 74.214 106.107 74.3244 106.016C74.5011 105.871 74.3301 106.065 74.2678 106.142C74.0615 106.395 73.8576 106.646 73.6849 106.924C73.678 106.935 73.5397 107.172 73.5573 107.179C73.5863 107.189 73.706 107.052 73.7241 107.035C73.8172 106.946 73.9153 106.868 74.0168 106.79C74.1714 106.67 74.3599 106.526 74.4725 106.363C74.5178 106.297 74.5523 106.224 74.5982 106.159C74.6472 106.089 74.528 106.314 74.4844 106.387C74.3802 106.561 74.3095 106.748 74.2272 106.932C74.1854 107.026 74.1565 107.05 74.2212 106.941C74.3091 106.792 74.4109 106.651 74.5078 106.508C74.6034 106.367 74.5424 106.507 74.5026 106.59C74.4866 106.623 74.2517 107.005 74.2665 107.016C74.2675 107.017 74.3228 106.934 74.3267 106.929C74.3545 106.893 74.394 106.868 74.4208 106.832C74.5364 106.676 74.1711 107.566 74.2416 107.386C74.2905 107.26 74.4209 107.18 74.502 107.082C74.5404 107.036 74.5287 107.048 74.5186 107.106C74.4978 107.223 74.4621 107.335 74.4372 107.45C74.4201 107.529 74.5465 107.33 74.6078 107.278C74.6512 107.24 74.7087 107.164 74.7646 107.144C74.7873 107.137 74.7075 107.415 74.699 107.439C74.6884 107.468 74.6428 107.673 74.6631 107.655C74.7119 107.612 74.7688 107.573 74.8159 107.532C74.8463 107.505 74.8144 107.658 74.8114 107.675C74.7807 107.849 74.9724 107.563 74.9507 107.706C74.9479 107.725 74.912 107.886 74.9433 107.866C74.9852 107.838 75.025 107.799 75.0633 107.772" stroke="#CD4631" stroke-width="0.210667" stroke-linecap="round"/>
  <path d="M75.6966 104.179C75.923 104.021 76.1486 103.865 76.3704 103.709C76.4486 103.654 76.4278 103.716 76.3974 103.784C76.3601 103.868 76.3227 103.937 76.2741 104.014C76.1708 104.178 76.1302 104.386 75.9978 104.531C75.8082 104.738 76.4078 104.147 76.6161 103.958C76.7941 103.797 76.3382 104.354 76.2463 104.576C76.2453 104.578 76.3779 104.444 76.4144 104.411C76.5534 104.287 76.6998 104.165 76.8527 104.058C76.8666 104.048 76.9916 103.955 76.9815 103.999C76.9419 104.168 76.7881 104.323 76.6826 104.455C76.5747 104.59 76.4804 104.735 76.3707 104.868C76.3269 104.921 76.272 104.985 76.2476 105.051C76.2252 105.112 76.3479 104.969 76.3511 104.966C76.5216 104.817 76.705 104.683 76.8804 104.539C77.0748 104.381 76.9054 104.594 76.8468 104.672C76.7461 104.805 76.6517 104.941 76.5526 105.075C76.4691 105.188 76.3801 105.301 76.2874 105.405C76.2241 105.477 76.1901 105.602 76.1146 105.655C75.9721 105.755 76.3915 105.44 76.5477 105.364C76.715 105.282 76.8596 105.108 76.9658 104.962C77.0433 104.855 77.1339 104.774 77.2186 104.675C77.2344 104.656 77.2857 104.611 77.2817 104.617C77.2005 104.752 77.0697 104.852 77.0008 104.998C76.8864 105.238 76.7024 105.468 76.5484 105.686C76.4388 105.841 76.6695 105.63 76.7175 105.594C76.8265 105.511 76.9384 105.439 77.0412 105.348C77.0891 105.306 77.1448 105.265 77.1882 105.219C77.3191 105.082 76.9077 105.475 76.762 105.596C76.6649 105.677 76.5999 105.797 76.5043 105.884C76.4622 105.922 76.4386 105.976 76.3809 105.996C76.361 106.004 76.4777 105.965 76.5016 105.951C76.6132 105.885 76.7241 105.817 76.8304 105.742C76.9249 105.676 77.0514 105.544 77.1683 105.515C77.2482 105.495 77.2847 105.46 77.1815 105.55C77.0768 105.642 77.0082 105.745 76.9311 105.856C76.8674 105.947 76.7632 106.014 76.7021 106.105C76.6875 106.126 76.6179 106.22 76.6353 106.203C76.7711 106.076 76.9124 105.966 77.0649 105.86C77.1843 105.776 76.9482 106.117 76.9226 106.152C76.8637 106.231 76.8005 106.312 76.7274 106.378C76.6377 106.46 76.5548 106.563 76.4853 106.656C76.4532 106.7 76.4217 106.73 76.3793 106.762C76.2572 106.853 76.475 106.72 76.5094 106.702C76.6664 106.62 76.8505 106.563 76.9956 106.461C77.1173 106.376 76.7952 106.681 76.7039 106.798C76.625 106.9 76.524 106.967 76.4225 107.038C76.3355 107.099 76.6047 106.99 76.6364 106.973C76.646 106.967 76.7445 106.904 76.7544 106.916C76.7929 106.963 76.7166 107.083 76.6972 107.124C76.6789 107.162 76.6522 107.209 76.6448 107.251C76.6398 107.279 76.688 107.213 76.7117 107.198C76.8015 107.137 76.6343 107.428 76.6273 107.468C76.6196 107.512 76.5356 107.675 76.5473 107.661C76.5572 107.649 76.5091 107.786 76.5034 107.818" stroke="#CD4631" stroke-width="0.210667" stroke-linecap="round"/>
</svg>