<svg xmlns="http://www.w3.org/2000/svg" width="208" height="213" viewBox="0 0 208 213" fill="none">
  <path d="M132.972 9.38448C143.573 11.7458 153.22 13.9565 163.017 16.1169C160.103 10.1381 147.995 7.77674 149.15 3.00377C151.913 -2.17113 157.088 0.541928 159.902 2.30039C164.876 5.46562 169.9 9.03279 173.668 13.4541C186.832 28.9285 193.765 47.7692 200.497 66.6099C204.868 78.9693 208.084 91.5298 207.33 104.693C204.768 150.413 184.269 185.381 142.167 204.624C94.2862 226.479 36.3071 201.208 17.2655 152.071C15.2558 146.896 12.593 141.973 9.87997 137.099C2.64516 124.237 -1.77612 110.923 0.68573 95.9008C2.64516 83.7423 8.27224 73.7442 17.0143 65.3036C18.9737 63.3944 21.0336 61.2842 22.2897 58.8726C33.4434 37.8213 50.7768 24.1556 73.0841 16.6193C85.3431 12.4492 97.6524 8.3294 110.112 4.76224C114.584 3.50619 119.608 3.7574 124.381 3.7574C128.4 3.95837 131.917 5.36514 132.972 9.38448ZM141.363 80.8785C131.515 122.68 103.631 142.475 64.8445 149.961C67.2561 157.246 70.773 161.265 77.5054 163.476C81.2735 164.732 85.2929 165.586 89.2117 165.787C130.259 167.897 160.153 125.795 144.88 87.5607C144.026 85.5008 142.769 83.5413 141.363 80.8785ZM100.114 200.002C136.037 201.81 162.263 185.331 180.501 155.739C200.497 123.232 200.146 89.3694 184.319 55.1045C180.501 56.9634 176.984 58.7219 173.316 60.5306C174.522 62.49 175.427 63.9973 176.381 65.5548C182.36 75.6534 186.279 86.4554 187.334 98.2119C189.193 119.163 182.712 137.652 169.9 154.031C155.28 172.72 135.484 184.678 114.835 195.43C111.871 196.987 108.454 197.59 105.189 198.645C103.48 199.047 101.772 199.499 100.114 200.002ZM134.932 35.3092C145.03 38.173 154.576 42.4938 162.766 49.4774C163.72 50.2813 165.429 50.8339 166.584 50.5325C171.407 49.4774 181.657 46.9653 179.546 44.0513C175.376 31.7421 151.763 19.9855 134.982 21.6435C134.932 25.914 134.932 30.2348 134.932 35.3092ZM124.381 81.3809C109.761 75.7539 74.3904 100.322 71.2252 117.806C86.2977 115.445 113.83 98.3124 122.07 86.0032C123.024 84.5964 123.627 82.9384 124.381 81.3809ZM125.989 68.72C119.457 64.6504 111.67 62.2891 104.385 64.349C95.8939 66.7606 87.3026 70.579 80.118 75.6534C68.8136 83.5916 60.8754 94.7955 56.8058 108.21C55.9014 111.225 54.9971 114.741 58.1623 118.208C59.6696 115.445 60.8754 112.983 62.2319 110.622C76.5508 86.2544 96.4465 70.4785 125.989 68.72ZM110.665 21.0406C87.3026 20.0357 69.7179 30.7372 53.6908 47.0156C59.9208 46.2619 65.2464 45.659 70.572 44.9557C72.9334 44.6542 75.546 44.8049 77.5054 43.7499C86.9006 38.7257 96.8485 35.3092 107.048 33.7015C108.304 29.3305 109.459 25.3614 110.665 21.0406ZM163.017 140.566C181.255 117.505 178.592 85.4003 161.258 64.4997C160.555 63.6456 159.399 62.6408 158.395 62.5403C153.672 62.0881 148.949 61.9374 144.277 61.6862C144.93 63.0427 145.583 63.4949 146.236 63.947C171.558 80.2254 178.491 102.884 166.634 130.517C165.228 133.833 164.223 137.25 163.017 140.566ZM54.1932 130.718C46.456 127.151 42.8888 121.223 43.14 113.335C43.2405 109.969 44.0444 106.602 44.999 103.387C47.712 93.9916 53.1381 86.1037 59.1169 78.5172C59.8705 77.5626 60.172 76.3065 60.6744 75.2012C48.6666 80.979 34.0965 111.275 38.97 132.527C43.14 134.185 47.8628 136.044 52.6357 137.903C53.2386 136.496 53.5903 135.994 53.6406 135.441C53.8918 133.984 53.9923 132.628 54.1932 130.718ZM63.5884 137.601C83.7856 134.587 100.215 126.247 113.428 111.727C105.741 115.696 98.4562 120.62 90.6185 124.187C82.5296 127.855 73.8378 130.216 64.543 133.482C64.4928 133.733 64.1411 135.19 63.5884 137.601ZM81.8262 178.348C98.6572 181.01 114.885 178.699 130.058 171.062C134.279 168.952 137.745 165.285 141.564 162.32C141.262 161.718 140.911 161.165 140.609 160.562C122.874 172.72 102.827 176.84 81.8262 178.348ZM60.8754 165.837C58.2628 160.411 55.7507 155.236 53.0879 149.66C49.7719 148.956 46.0038 148.152 41.9342 147.298C45.1497 158.753 48.2647 161.818 60.8754 165.837ZM35.3526 72.2369C44.0444 67.0118 52.8367 61.6862 62.1314 56.0591C48.5159 54.803 39.7236 60.3296 35.3526 72.2369ZM10.0307 115.093C10.7341 105.798 11.3872 97.3578 12.1409 87.7616C8.32248 97.0564 7.31764 105.447 10.0307 115.093ZM125.838 25.7131C119.206 26.1652 119.005 26.4164 118.201 32.9479C120.06 33.1488 121.919 33.3498 124.532 33.6513C124.984 30.888 125.386 28.6271 125.838 25.7131Z" fill="black"/>
</svg>